<?xml version="1.0" encoding="iso-8859-1"?>
<!-- Generator: Adobe Illustrator 24.0.2, SVG Export Plug-In . SVG Version: 6.00 Build 0)  -->
<svg version="1.1" xmlns="http://www.w3.org/2000/svg" xmlns:xlink="http://www.w3.org/1999/xlink" x="0px" y="0px"
	 viewBox="0 0 63.278 71.052" style="enable-background:new 0 0 63.278 71.052;" xml:space="preserve">
<g id="Layer_2">
	<rect x="-616.113" y="-240.839" style="fill:#3D5166;" width="386.5" height="386.5"/>
</g>
<g id="Layer_1">
	<path d="M-594.096,181.743c-0.243,1.071-0.413,2.001-0.668,2.907c-1.588,5.657-4.162,10.834-7.634,15.569
		c-0.157,0.214-0.258,0.469-0.5,0.916c5.026-2.334,11.148-13.756,11.705-21.475c-1.463,0-2.924-0.002-4.385,0
		c-1.911,0.003-3.827,0.094-5.733-0.013c-1.891-0.106-3.216-1.228-4.101-2.847c-0.375-0.685,0.025-0.922,0.696-0.917
		c1.685,0.012,3.37,0.003,5.054,0.003c3.208,0,6.416,0.051,9.622-0.018c2.142-0.046,2.682,1.045,2.367,2.799
		c-0.843,4.696-1.815,9.362-3.847,13.737c-2.316,4.986-5.678,9.103-10.005,12.472c-0.733,0.571-1.282,0.649-1.992,0.002
		c-1.023-0.932-2.138-1.764-3.169-2.689c-0.885-0.793-0.814-1.014-0.096-2.002c1.697-2.336,3.481-4.626,4.969-7.092
		c1.942-3.219,3.347-6.709,4.234-10.377c0.179-0.741,0.464-1.051,1.227-0.989C-595.682,181.786-595.005,181.743-594.096,181.743z
		 M-590.625,178.756c-1.2,9.311-4.487,17.322-11.865,23.259c-1.356-1.009-1.281-0.958-0.393-2.268
		c1.441-2.126,2.883-4.265,4.124-6.509c1.835-3.318,3.147-6.862,4.051-10.578c-0.824,0-1.589,0-2.348,0
		c-1.778,6.95-4.997,13.09-9.757,18.604c1.448,1.179,2.853,2.322,4.229,3.442c4.203-2.979,7.393-6.589,9.763-10.939
		c2.504-4.596,3.745-9.582,4.594-14.69c0.352-2.118,0.14-2.325-2.039-2.326c-4.439-0.001-8.877-0.001-13.316,0.002
		c-0.327,0-0.653,0.036-1.07,0.06c0.915,1.294,2.104,1.938,3.428,1.942c0.907,0.003,1.814,0.001,2.721,0.001
		C-595.95,178.756-593.398,178.756-590.625,178.756z"/>
	<path d="M-604.191,189.295c0.776-2.059,1.523-3.867,2.123-5.723c0.227-0.703,0.523-0.887,1.205-0.87
		c2.435,0.062,2.559-0.37,1.724,2.35c-1.738,5.665-4.548,10.758-8.437,15.243c-0.037,0.043-0.117,0.048-0.421,0.165
		c-1.048-1.688-2.198-3.379-3.185-5.161c-2.393-4.317-3.618-9.029-4.457-13.852c-0.768-4.417-1.411-8.863-2.931-13.108
		c-0.288-0.806-0.733-1.56-1.15-2.313c-0.383-0.694-0.243-1.021,0.535-1.058c0.388-0.018,0.778-0.004,1.167-0.004
		c1.794,0,1.807-0.004,2.352,1.645c1.28,3.873,2.122,7.843,2.761,11.871c0.847,5.342,1.99,10.61,4.694,15.393
		c0.155,0.274,0.324,0.54,0.489,0.814c1.334-1.035,1.507-1.722,0.894-3.148c-1.68-3.908-2.733-7.988-3.384-12.188
		c-0.676-4.366-1.473-8.71-2.932-12.901c-0.482-1.383-0.401-1.485,1.037-1.484c1.665,0.001,2.094,0.221,2.471,1.824
		c0.841,3.578,1.645,7.168,2.336,10.778c0.674,3.522,1.258,7.058,2.557,10.423C-604.609,188.339-604.453,188.68-604.191,189.295z
		 M-604.055,190.19c-0.109-0.014-0.218-0.027-0.327-0.041c-0.123-0.25-0.261-0.495-0.367-0.752
		c-1.518-3.704-2.222-7.609-2.946-11.522c-0.651-3.52-1.467-7.011-2.295-10.494c-0.368-1.549-1.141-1.883-2.731-1.422
		c0.01,0.119-0.006,0.254,0.035,0.368c1.447,4.068,2.185,8.304,2.848,12.544c0.713,4.561,1.869,8.972,3.815,13.167
		c0.155,0.334,0.357,0.836,0.22,1.082c-0.519,0.929-1.169,1.786-1.828,2.756c-0.228-0.325-0.327-0.45-0.41-0.586
		c-3.086-5.067-4.235-10.743-5.297-16.472c-0.688-3.71-1.578-7.389-2.52-11.045c-0.554-2.149-0.679-2.117-2.894-1.977
		c-0.057,0.004-0.112,0.045-0.231,0.095c0.27,0.67,0.631,1.32,0.796,2.016c0.937,3.955,1.964,7.897,2.697,11.892
		c0.784,4.27,1.677,8.488,3.419,12.48c1.126,2.581,2.532,5.003,4.312,7.251c4.015-4.7,6.822-9.943,8.528-15.877
		c-0.855,0-1.592,0-2.211,0C-602.33,185.877-603.192,188.034-604.055,190.19z"/>
	<path d="M-604.1,168.992c-0.017,0.352-0.037,0.603-0.04,0.855c-0.006,0.447-0.002,0.894-0.002,1.455c0.425,0,0.77,0,1.116,0
		c3.5,0,7,0.053,10.498-0.022c1.815-0.039,3.34,1.354,4.062,2.809c0.222,0.447,0.169,0.915-0.545,0.903
		c-0.647-0.011-1.294-0.003-1.941-0.003c-4.504,0-9.009-0.044-13.512,0.024c-1.601,0.024-2.938-1.092-2.812-2.804
		c0.109-1.483,0.014-2.98,0.025-4.47c0.011-1.458,0.978-2.429,2.421-2.432c6.513-0.01,13.025-0.016,19.538-0.019
		c1.092-0.001,1.23,0.211,0.654,1.175c-0.937,1.57-2.116,2.609-4.18,2.565C-593.869,168.919-598.924,168.992-604.1,168.992z
		 M-589.111,174.113c-1.034-1.335-2.11-2.049-3.653-2.032c-3.565,0.039-7.132-0.015-10.697,0.032
		c-0.876,0.012-1.165-0.275-1.08-1.114c0.055-0.545,0.063-1.107-0.001-1.651c-0.112-0.94,0.251-1.198,1.182-1.19
		c4.992,0.044,9.984,0.023,14.977,0.019c1.478-0.001,2.559-0.723,3.051-2.033c-0.167-0.008-0.326-0.021-0.484-0.021
		c-6.192-0.001-12.383-0.002-18.575,0.003c-0.288,0-0.579,0.042-0.864,0.091c-1.017,0.176-1.597,0.83-1.606,1.841
		c-0.013,1.394-0.009,2.788-0.001,4.182c0.005,0.973,0.518,1.568,1.442,1.794c0.372,0.091,0.767,0.125,1.151,0.126
		c4.668,0.008,9.336,0.006,14.004,0.004C-589.951,174.164-589.637,174.137-589.111,174.113z"/>
	<path style="fill:#FFFFFF;" d="M-590.625,178.756c-2.774,0-5.326,0-7.878,0c-0.907,0-1.814,0.002-2.721-0.001
		c-1.324-0.004-2.513-0.648-3.428-1.942c0.417-0.024,0.743-0.06,1.07-0.06c4.439-0.004,8.877-0.003,13.316-0.002
		c2.18,0.001,2.391,0.208,2.039,2.326c-0.849,5.107-2.09,10.094-4.594,14.69c-2.37,4.35-5.56,7.96-9.763,10.939
		c-1.376-1.12-2.781-2.263-4.229-3.442c4.76-5.514,7.979-11.654,9.757-18.604c0.759,0,1.525,0,2.348,0
		c-0.903,3.716-2.216,7.261-4.051,10.578c-1.242,2.244-2.683,4.384-4.124,6.509c-0.888,1.31-0.964,1.258,0.393,2.268
		C-595.112,196.078-591.825,188.067-590.625,178.756z"/>
	<path style="fill:#FFFFFF;" d="M-604.055,190.19c0.862-2.156,1.724-4.313,2.613-6.537c0.619,0,1.355,0,2.211,0
		c-1.706,5.934-4.513,11.176-8.528,15.877c-1.78-2.248-3.187-4.67-4.312-7.251c-1.742-3.992-2.635-8.21-3.419-12.48
		c-0.733-3.995-1.76-7.936-2.697-11.892c-0.165-0.697-0.526-1.347-0.796-2.016c0.119-0.05,0.173-0.091,0.231-0.095
		c2.216-0.14,2.341-0.172,2.894,1.977c0.942,3.656,1.832,7.334,2.52,11.045c1.062,5.729,2.211,11.405,5.297,16.472
		c0.082,0.135,0.182,0.261,0.41,0.586c0.66-0.97,1.31-1.826,1.828-2.756c0.138-0.246-0.065-0.748-0.22-1.082
		c-1.946-4.195-3.102-8.605-3.815-13.167c-0.663-4.24-1.401-8.476-2.848-12.544c-0.041-0.115-0.025-0.25-0.035-0.368
		c1.589-0.461,2.362-0.127,2.731,1.422c0.828,3.484,1.644,6.975,2.295,10.494c0.724,3.913,1.427,7.818,2.946,11.522
		c0.106,0.258,0.244,0.502,0.367,0.752C-604.273,190.163-604.164,190.176-604.055,190.19z"/>
	<path style="fill:#FFFFFF;" d="M-589.111,174.113c-0.526,0.024-0.841,0.051-1.155,0.051c-4.668,0.003-9.336,0.005-14.004-0.004
		c-0.384-0.001-0.779-0.035-1.151-0.126c-0.923-0.226-1.436-0.821-1.442-1.794c-0.008-1.394-0.012-2.788,0.001-4.182
		c0.01-1.011,0.589-1.664,1.606-1.841c0.285-0.049,0.576-0.091,0.864-0.091c6.192-0.005,12.383-0.004,18.575-0.003
		c0.158,0,0.317,0.013,0.484,0.021c-0.491,1.31-1.573,2.032-3.051,2.033c-4.992,0.004-9.985,0.025-14.977-0.019
		c-0.932-0.008-1.295,0.249-1.182,1.19c0.065,0.543,0.057,1.105,0.001,1.651c-0.085,0.839,0.203,1.125,1.08,1.114
		c3.565-0.047,7.132,0.007,10.697-0.032C-591.22,172.064-590.144,172.778-589.111,174.113z"/>
	<g>
		<path d="M-257.014-197.996c-0.49,2.153-0.831,4.023-1.343,5.845c-3.194,11.376-8.37,21.785-15.352,31.309
			c-0.315,0.43-0.52,0.942-1.006,1.843c10.107-4.693,22.418-27.661,23.538-43.184c-2.941,0-5.88-0.003-8.818,0.001
			c-3.844,0.005-7.697,0.189-11.528-0.025c-3.802-0.213-6.467-2.468-8.247-5.724c-0.754-1.378,0.05-1.853,1.399-1.844
			c3.388,0.023,6.776,0.007,10.164,0.007c6.45,0,12.902,0.103,19.35-0.036c4.308-0.093,5.394,2.101,4.76,5.629
			c-1.696,9.442-3.649,18.825-7.736,27.624c-4.658,10.027-11.417,18.306-20.118,25.08c-1.474,1.148-2.578,1.306-4.006,0.004
			c-2.058-1.875-4.299-3.548-6.373-5.407c-1.78-1.595-1.637-2.038-0.193-4.027c3.413-4.697,7.001-9.302,9.993-14.26
			c3.906-6.472,6.73-13.492,8.515-20.868c0.361-1.49,0.932-2.113,2.466-1.989C-260.203-197.91-258.842-197.996-257.014-197.996z
			 M-250.035-204.002c-2.413,18.723-9.023,34.833-23.86,46.772c-2.727-2.03-2.575-1.927-0.79-4.56
			c2.899-4.275,5.797-8.577,8.294-13.09c3.69-6.671,6.329-13.8,8.146-21.272c-1.656,0-3.196,0-4.722,0
			c-3.575,13.977-10.049,26.323-19.62,37.412c2.913,2.371,5.737,4.67,8.504,6.922c8.453-5.991,14.867-13.25,19.633-21.998
			c5.035-9.242,7.531-19.269,9.238-29.54c0.708-4.259,0.282-4.676-4.101-4.677c-8.926-0.002-17.851-0.003-26.777,0.004
			c-0.657,0.001-1.314,0.072-2.152,0.121c1.839,2.601,4.23,3.897,6.893,3.904c1.824,0.005,3.648,0.001,5.473,0.001
			C-260.744-204.002-255.612-204.002-250.035-204.002z"/>
		<path d="M-280.053-184.765c1.56-4.141,3.063-7.777,4.268-11.508c0.457-1.414,1.052-1.784,2.424-1.749
			c4.897,0.125,5.146-0.744,3.468,4.726c-3.496,11.392-9.147,21.633-16.965,30.652c-0.074,0.086-0.235,0.097-0.848,0.331
			c-2.108-3.394-4.42-6.795-6.405-10.377c-4.811-8.682-7.275-18.157-8.962-27.856c-1.545-8.883-2.837-17.822-5.893-26.359
			c-0.58-1.62-1.475-3.136-2.313-4.652c-0.771-1.395-0.488-2.054,1.075-2.127c0.781-0.036,1.564-0.007,2.346-0.007
			c3.608,0,3.633-0.008,4.729,3.307c2.573,7.788,4.268,15.772,5.552,23.871c1.703,10.743,4.001,21.336,9.44,30.953
			c0.312,0.552,0.652,1.087,0.983,1.636c2.683-2.081,3.031-3.463,1.799-6.329c-3.378-7.86-5.496-16.063-6.805-24.51
			c-1.36-8.78-2.962-17.515-5.897-25.944c-0.969-2.782-0.805-2.987,2.084-2.985c3.348,0.002,4.21,0.445,4.968,3.667
			c1.692,7.195,3.308,14.415,4.697,21.674c1.355,7.083,2.53,14.193,5.142,20.96C-280.894-186.687-280.579-186.003-280.053-184.765z
			 M-279.778-182.966c-0.219-0.028-0.438-0.055-0.658-0.083c-0.248-0.504-0.526-0.995-0.738-1.513
			c-3.054-7.448-4.469-15.301-5.924-23.17c-1.309-7.078-2.95-14.098-4.616-21.103c-0.741-3.116-2.295-3.787-5.492-2.86
			c0.02,0.239-0.012,0.51,0.07,0.741c2.91,8.181,4.394,16.699,5.727,25.226c1.434,9.172,3.758,18.041,7.671,26.477
			c0.312,0.672,0.718,1.68,0.442,2.176c-1.043,1.869-2.35,3.591-3.677,5.541c-0.459-0.653-0.658-0.905-0.824-1.178
			c-6.205-10.19-8.516-21.603-10.652-33.124c-1.383-7.461-3.173-14.858-5.067-22.21c-1.113-4.321-1.365-4.257-5.821-3.975
			c-0.115,0.007-0.225,0.09-0.464,0.191c0.543,1.346,1.27,2.654,1.601,4.054c1.885,7.954,3.949,15.88,5.423,23.913
			c1.576,8.586,3.373,17.068,6.875,25.096c2.264,5.19,5.092,10.061,8.672,14.581c8.074-9.452,13.719-19.994,17.15-31.926
			c-1.72,0-3.201,0-4.445,0C-276.311-191.639-278.045-187.302-279.778-182.966z"/>
		<path d="M-276.014-226.275c-0.034,0.708-0.073,1.213-0.08,1.719c-0.012,0.899-0.003,1.797-0.003,2.926c0.854,0,1.549,0,2.244,0
			c7.037,0,14.077,0.107,21.111-0.044c3.65-0.079,6.717,2.722,8.168,5.648c0.446,0.898,0.34,1.841-1.097,1.816
			c-1.301-0.023-2.603-0.006-3.904-0.006c-9.057,0-18.116-0.089-27.172,0.047c-3.219,0.048-5.909-2.196-5.655-5.639
			c0.22-2.981,0.028-5.992,0.051-8.989c0.022-2.933,1.966-4.885,4.869-4.89c13.096-0.02,26.193-0.031,39.289-0.039
			c2.196-0.001,2.474,0.424,1.316,2.364c-1.885,3.157-4.254,5.247-8.405,5.158C-255.44-226.423-265.605-226.275-276.014-226.275z
			 M-245.872-215.978c-2.079-2.685-4.242-4.12-7.346-4.086c-7.17,0.079-14.342-0.03-21.511,0.064
			c-1.762,0.023-2.342-0.553-2.171-2.24c0.111-1.097,0.127-2.227-0.003-3.32c-0.226-1.891,0.504-2.408,2.378-2.392
			c10.038,0.088,20.077,0.046,30.116,0.038c2.972-0.002,5.147-1.453,6.135-4.088c-0.337-0.015-0.655-0.042-0.974-0.042
			c-12.451-0.002-24.902-0.004-37.353,0.006c-0.579,0-1.164,0.084-1.736,0.184c-2.045,0.355-3.211,1.669-3.23,3.701
			c-0.027,2.803-0.018,5.606-0.003,8.409c0.011,1.956,1.042,3.152,2.899,3.607c0.748,0.183,1.542,0.252,2.315,0.253
			c9.387,0.017,18.774,0.012,28.161,0.007C-247.562-215.875-246.93-215.93-245.872-215.978z"/>
		<path style="fill:#FFFFFF;" d="M-250.035-204.002c-5.577,0-10.709,0-15.841,0c-1.824,0-3.648,0.004-5.473-0.001
			c-2.663-0.008-5.054-1.303-6.893-3.904c0.838-0.049,1.495-0.12,2.152-0.121c8.926-0.007,17.851-0.006,26.777-0.004
			c4.383,0.001,4.809,0.418,4.101,4.677c-1.707,10.271-4.203,20.298-9.238,29.54c-4.766,8.748-11.181,16.007-19.633,21.998
			c-2.767-2.252-5.592-4.552-8.504-6.922c9.571-11.089,16.045-23.435,19.62-37.412c1.526,0,3.066,0,4.722,0
			c-1.817,7.472-4.455,14.601-8.146,21.272c-2.496,4.513-5.395,8.815-8.294,13.09c-1.786,2.633-1.938,2.53,0.79,4.56
			C-259.058-169.169-252.448-185.28-250.035-204.002z"/>
		<path style="fill:#FFFFFF;" d="M-279.778-182.966c1.733-4.336,3.467-8.673,5.255-13.146c1.245,0,2.725,0,4.445,0
			c-3.431,11.932-9.076,22.474-17.15,31.926c-3.58-4.52-6.408-9.391-8.672-14.581c-3.502-8.028-5.299-16.51-6.875-25.096
			c-1.475-8.033-3.539-15.959-5.423-23.913c-0.332-1.401-1.059-2.708-1.601-4.054c0.238-0.101,0.349-0.184,0.464-0.191
			c4.455-0.282,4.707-0.346,5.821,3.975c1.894,7.352,3.684,14.748,5.067,22.21c2.135,11.521,4.447,22.934,10.652,33.124
			c0.166,0.272,0.365,0.524,0.824,1.178c1.327-1.951,2.634-3.672,3.677-5.541c0.277-0.495-0.13-1.504-0.442-2.176
			c-3.913-8.436-6.237-17.305-7.671-26.477c-1.333-8.526-2.816-17.045-5.727-25.226c-0.082-0.231-0.05-0.502-0.07-0.741
			c3.196-0.927,4.751-0.256,5.492,2.86c1.666,7.005,3.307,14.026,4.616,21.103c1.455,7.869,2.87,15.722,5.924,23.17
			c0.212,0.518,0.491,1.009,0.738,1.513C-280.217-183.021-279.997-182.993-279.778-182.966z"/>
		<path style="fill:#FFFFFF;" d="M-245.872-215.978c-1.058,0.049-1.69,0.103-2.322,0.104c-9.387,0.005-18.774,0.009-28.161-0.007
			c-0.773-0.001-1.566-0.07-2.315-0.253c-1.857-0.455-2.888-1.651-2.899-3.607c-0.015-2.803-0.024-5.606,0.003-8.409
			c0.019-2.032,1.185-3.347,3.23-3.701c0.573-0.099,1.157-0.183,1.736-0.184c12.451-0.01,24.902-0.008,37.353-0.006
			c0.318,0,0.637,0.027,0.974,0.042c-0.988,2.634-3.163,4.085-6.135,4.088c-10.039,0.008-20.078,0.049-30.116-0.038
			c-1.873-0.016-2.603,0.501-2.378,2.392c0.13,1.093,0.114,2.223,0.003,3.32c-0.171,1.687,0.409,2.263,2.171,2.24
			c7.169-0.094,14.341,0.015,21.511-0.064C-250.114-220.099-247.95-218.663-245.872-215.978z"/>
	</g>
	<g>
		<path style="fill:#334036;" d="M-257.014-101.63c-0.49,2.153-0.831,4.023-1.343,5.845c-3.194,11.376-8.37,21.785-15.352,31.309
			c-0.315,0.43-0.52,0.942-1.006,1.843c10.107-4.693,22.418-27.661,23.538-43.184c-2.941,0-5.88-0.003-8.818,0.001
			c-3.844,0.005-7.697,0.189-11.528-0.025c-3.802-0.213-6.467-2.468-8.247-5.724c-0.754-1.378,0.05-1.853,1.399-1.844
			c3.388,0.024,6.776,0.007,10.164,0.007c6.45,0,12.902,0.103,19.35-0.036c4.308-0.093,5.394,2.101,4.76,5.629
			c-1.696,9.442-3.649,18.825-7.736,27.624c-4.658,10.027-11.417,18.306-20.118,25.08c-1.474,1.148-2.578,1.306-4.006,0.004
			c-2.058-1.875-4.299-3.548-6.373-5.407c-1.78-1.595-1.637-2.038-0.193-4.027c3.413-4.697,7.001-9.302,9.993-14.26
			c3.906-6.472,6.73-13.492,8.515-20.868c0.361-1.49,0.932-2.113,2.466-1.989C-260.203-101.544-258.842-101.63-257.014-101.63z
			 M-250.035-107.636c-2.413,18.723-9.023,34.833-23.86,46.772c-2.727-2.03-2.575-1.927-0.79-4.56
			c2.899-4.275,5.797-8.577,8.294-13.09c3.69-6.671,6.329-13.8,8.146-21.272c-1.656,0-3.196,0-4.722,0
			c-3.575,13.977-10.049,26.323-19.62,37.412c2.913,2.371,5.737,4.67,8.504,6.922c8.453-5.991,14.867-13.25,19.633-21.998
			c5.035-9.242,7.531-19.269,9.238-29.54c0.708-4.259,0.282-4.676-4.101-4.677c-8.926-0.002-17.851-0.003-26.777,0.004
			c-0.657,0.001-1.314,0.072-2.152,0.121c1.839,2.601,4.23,3.897,6.893,3.904c1.824,0.005,3.648,0.001,5.473,0.001
			C-260.744-107.636-255.612-107.636-250.035-107.636z"/>
		<path style="fill:#334036;" d="M-280.053-88.399c1.56-4.141,3.063-7.777,4.268-11.508c0.457-1.414,1.052-1.784,2.424-1.749
			c4.897,0.125,5.146-0.744,3.468,4.726c-3.496,11.392-9.147,21.633-16.965,30.652c-0.074,0.086-0.235,0.097-0.848,0.331
			c-2.108-3.394-4.42-6.795-6.405-10.377c-4.811-8.682-7.275-18.157-8.962-27.856c-1.545-8.883-2.837-17.822-5.893-26.359
			c-0.58-1.62-1.475-3.136-2.313-4.652c-0.771-1.395-0.488-2.054,1.075-2.127c0.781-0.036,1.564-0.007,2.346-0.007
			c3.608,0,3.633-0.008,4.729,3.307c2.573,7.788,4.268,15.772,5.552,23.871c1.703,10.743,4.001,21.336,9.44,30.953
			c0.312,0.552,0.652,1.087,0.983,1.636c2.683-2.081,3.031-3.463,1.799-6.329c-3.378-7.86-5.496-16.063-6.805-24.51
			c-1.36-8.78-2.962-17.515-5.897-25.944c-0.969-2.782-0.805-2.987,2.084-2.985c3.348,0.002,4.21,0.445,4.968,3.667
			c1.692,7.196,3.308,14.415,4.697,21.674c1.355,7.083,2.53,14.193,5.142,20.96C-280.894-90.322-280.579-89.637-280.053-88.399z
			 M-279.778-86.6c-0.219-0.028-0.438-0.055-0.658-0.083c-0.248-0.504-0.526-0.995-0.738-1.513
			c-3.054-7.448-4.469-15.301-5.924-23.17c-1.309-7.078-2.95-14.098-4.616-21.103c-0.741-3.116-2.295-3.787-5.492-2.86
			c0.02,0.239-0.012,0.51,0.07,0.741c2.91,8.181,4.394,16.699,5.727,25.226c1.434,9.172,3.758,18.041,7.671,26.477
			c0.312,0.672,0.718,1.68,0.442,2.176c-1.043,1.869-2.35,3.591-3.677,5.541c-0.459-0.653-0.658-0.905-0.824-1.178
			c-6.205-10.19-8.516-21.603-10.652-33.124c-1.383-7.461-3.173-14.858-5.067-22.21c-1.113-4.321-1.365-4.257-5.821-3.975
			c-0.115,0.007-0.225,0.09-0.464,0.191c0.543,1.346,1.27,2.654,1.601,4.054c1.885,7.954,3.949,15.88,5.423,23.913
			c1.576,8.586,3.373,17.068,6.875,25.096c2.264,5.19,5.092,10.061,8.672,14.581c8.074-9.452,13.719-19.994,17.15-31.926
			c-1.72,0-3.201,0-4.445,0C-276.311-95.273-278.045-90.936-279.778-86.6z"/>
		<path style="fill:#334036;" d="M-276.014-129.909c-0.034,0.708-0.073,1.213-0.08,1.719c-0.012,0.899-0.003,1.797-0.003,2.926
			c0.854,0,1.549,0,2.244,0c7.037,0,14.077,0.107,21.111-0.044c3.65-0.079,6.717,2.722,8.168,5.648
			c0.446,0.898,0.34,1.841-1.097,1.816c-1.301-0.023-2.603-0.006-3.904-0.006c-9.057,0-18.116-0.089-27.172,0.047
			c-3.219,0.048-5.909-2.196-5.655-5.639c0.22-2.981,0.028-5.992,0.051-8.989c0.022-2.933,1.966-4.885,4.869-4.89
			c13.096-0.02,26.193-0.031,39.289-0.039c2.196-0.001,2.474,0.424,1.316,2.364c-1.885,3.157-4.254,5.247-8.405,5.158
			C-255.44-130.057-265.605-129.909-276.014-129.909z M-245.872-119.612c-2.079-2.685-4.242-4.12-7.346-4.086
			c-7.17,0.079-14.342-0.03-21.511,0.064c-1.762,0.023-2.342-0.553-2.171-2.24c0.111-1.097,0.127-2.227-0.003-3.32
			c-0.226-1.891,0.504-2.408,2.378-2.392c10.038,0.088,20.077,0.046,30.116,0.038c2.972-0.002,5.147-1.453,6.135-4.088
			c-0.337-0.015-0.655-0.042-0.974-0.042c-12.451-0.002-24.902-0.004-37.353,0.006c-0.579,0-1.164,0.084-1.736,0.184
			c-2.045,0.355-3.211,1.669-3.23,3.701c-0.027,2.803-0.018,5.606-0.003,8.409c0.011,1.956,1.042,3.152,2.899,3.607
			c0.748,0.183,1.542,0.252,2.315,0.253c9.387,0.017,18.774,0.012,28.161,0.007C-247.562-119.509-246.93-119.564-245.872-119.612z"
			/>
		<path style="fill:#334036;" d="M-250.035-107.636c-5.577,0-10.709,0-15.841,0c-1.824,0-3.648,0.004-5.473-0.001
			c-2.663-0.008-5.054-1.303-6.893-3.904c0.838-0.049,1.495-0.12,2.152-0.121c8.926-0.007,17.851-0.006,26.777-0.004
			c4.383,0.001,4.809,0.418,4.101,4.677c-1.707,10.271-4.203,20.298-9.238,29.54c-4.766,8.748-11.181,16.007-19.633,21.998
			c-2.767-2.252-5.592-4.552-8.504-6.922c9.571-11.089,16.045-23.435,19.62-37.412c1.526,0,3.066,0,4.722,0
			c-1.817,7.472-4.455,14.601-8.146,21.272c-2.496,4.513-5.395,8.815-8.294,13.09c-1.786,2.633-1.938,2.53,0.79,4.56
			C-259.058-72.803-252.448-88.914-250.035-107.636z"/>
		<path style="fill:#334036;" d="M-279.778-86.6c1.733-4.336,3.467-8.673,5.255-13.146c1.245,0,2.725,0,4.445,0
			c-3.431,11.932-9.076,22.474-17.15,31.926c-3.58-4.52-6.408-9.392-8.672-14.581c-3.502-8.028-5.299-16.51-6.875-25.096
			c-1.475-8.033-3.539-15.959-5.423-23.913c-0.332-1.401-1.059-2.708-1.601-4.054c0.238-0.101,0.349-0.184,0.464-0.191
			c4.455-0.282,4.707-0.346,5.821,3.975c1.894,7.352,3.684,14.748,5.067,22.21c2.135,11.521,4.447,22.934,10.652,33.124
			c0.166,0.272,0.365,0.524,0.824,1.178c1.327-1.951,2.634-3.672,3.677-5.541c0.277-0.495-0.13-1.504-0.442-2.176
			c-3.913-8.436-6.237-17.305-7.671-26.477c-1.333-8.526-2.816-17.045-5.727-25.226c-0.082-0.231-0.05-0.502-0.07-0.741
			c3.196-0.927,4.751-0.256,5.492,2.86c1.666,7.005,3.307,14.026,4.616,21.103c1.455,7.869,2.87,15.722,5.924,23.17
			c0.212,0.518,0.491,1.009,0.738,1.513C-280.217-86.655-279.997-86.628-279.778-86.6z"/>
		<path style="fill:#334036;" d="M-245.872-119.612c-1.058,0.049-1.69,0.103-2.322,0.103c-9.387,0.005-18.774,0.009-28.161-0.007
			c-0.773-0.001-1.566-0.07-2.315-0.253c-1.857-0.455-2.888-1.651-2.899-3.607c-0.015-2.803-0.024-5.606,0.003-8.409
			c0.019-2.032,1.185-3.347,3.23-3.701c0.573-0.099,1.157-0.183,1.736-0.184c12.451-0.01,24.902-0.008,37.353-0.006
			c0.318,0,0.637,0.027,0.974,0.042c-0.988,2.634-3.163,4.085-6.135,4.088c-10.039,0.008-20.078,0.049-30.116-0.038
			c-1.873-0.016-2.603,0.501-2.378,2.392c0.13,1.093,0.114,2.223,0.003,3.32c-0.171,1.687,0.409,2.263,2.171,2.24
			c7.169-0.094,14.341,0.015,21.511-0.064C-250.114-123.733-247.95-122.297-245.872-119.612z"/>
	</g>
	<g>
		<path d="M-257.014-5.264c-0.49,2.153-0.831,4.023-1.343,5.845c-3.194,11.376-8.37,21.785-15.352,31.309
			c-0.315,0.43-0.52,0.942-1.006,1.843c10.107-4.693,22.418-27.661,23.538-43.184c-2.941,0-5.88-0.003-8.818,0.001
			c-3.844,0.005-7.697,0.189-11.528-0.025c-3.802-0.213-6.467-2.468-8.247-5.724c-0.754-1.378,0.05-1.853,1.399-1.844
			c3.388,0.024,6.776,0.007,10.164,0.007c6.45,0,12.902,0.103,19.35-0.036c4.308-0.093,5.394,2.101,4.76,5.629
			c-1.696,9.442-3.649,18.825-7.736,27.624c-4.658,10.027-11.417,18.306-20.118,25.08c-1.474,1.148-2.578,1.306-4.006,0.004
			c-2.058-1.875-4.299-3.548-6.373-5.407c-1.78-1.595-1.637-2.038-0.193-4.027c3.413-4.697,7.001-9.302,9.993-14.26
			c3.906-6.472,6.73-13.492,8.515-20.868c0.361-1.49,0.932-2.113,2.466-1.989C-260.203-5.178-258.842-5.264-257.014-5.264z
			 M-250.035-11.27c-2.413,18.723-9.023,34.833-23.86,46.772c-2.727-2.03-2.575-1.927-0.79-4.56
			c2.899-4.275,5.797-8.577,8.294-13.09c3.69-6.671,6.329-13.8,8.146-21.272c-1.656,0-3.196,0-4.722,0
			c-3.575,13.977-10.049,26.323-19.62,37.412c2.913,2.371,5.737,4.67,8.504,6.922c8.453-5.991,14.867-13.25,19.633-21.998
			c5.035-9.242,7.531-19.269,9.238-29.54c0.708-4.259,0.282-4.676-4.101-4.677c-8.926-0.002-17.851-0.003-26.777,0.004
			c-0.657,0.001-1.314,0.072-2.152,0.121c1.839,2.601,4.23,3.897,6.893,3.904c1.824,0.005,3.648,0.001,5.473,0.001
			C-260.744-11.27-255.612-11.27-250.035-11.27z"/>
		<path d="M-280.053,7.967c1.56-4.141,3.063-7.777,4.268-11.508c0.457-1.414,1.052-1.784,2.424-1.749
			c4.897,0.125,5.146-0.744,3.468,4.726c-3.496,11.392-9.147,21.633-16.965,30.652c-0.074,0.086-0.235,0.097-0.848,0.331
			c-2.108-3.394-4.42-6.795-6.405-10.377c-4.811-8.682-7.275-18.157-8.962-27.856c-1.545-8.883-2.837-17.822-5.893-26.359
			c-0.58-1.62-1.475-3.136-2.313-4.652c-0.771-1.395-0.488-2.054,1.075-2.127c0.781-0.036,1.564-0.007,2.346-0.007
			c3.608,0,3.633-0.008,4.729,3.307c2.573,7.788,4.268,15.772,5.552,23.871c1.703,10.743,4.001,21.336,9.44,30.953
			c0.312,0.552,0.652,1.087,0.983,1.636c2.683-2.081,3.031-3.463,1.799-6.329c-3.378-7.86-5.496-16.063-6.805-24.51
			c-1.36-8.78-2.962-17.515-5.897-25.944c-0.969-2.782-0.805-2.987,2.084-2.985c3.348,0.002,4.21,0.445,4.968,3.667
			c1.692,7.196,3.308,14.415,4.697,21.674c1.355,7.083,2.53,14.193,5.142,20.96C-280.894,6.044-280.579,6.729-280.053,7.967z
			 M-279.778,9.766c-0.219-0.028-0.438-0.055-0.658-0.083c-0.248-0.504-0.526-0.995-0.738-1.513
			c-3.054-7.448-4.469-15.301-5.924-23.17c-1.309-7.078-2.95-14.098-4.616-21.103c-0.741-3.116-2.295-3.787-5.492-2.86
			c0.02,0.239-0.012,0.51,0.07,0.741c2.91,8.181,4.394,16.699,5.727,25.226c1.434,9.172,3.758,18.041,7.671,26.477
			c0.312,0.672,0.718,1.68,0.442,2.176c-1.043,1.869-2.35,3.591-3.677,5.541c-0.459-0.653-0.658-0.905-0.824-1.178
			c-6.205-10.19-8.516-21.603-10.652-33.124c-1.383-7.461-3.173-14.858-5.067-22.21c-1.113-4.321-1.365-4.257-5.821-3.975
			c-0.115,0.007-0.225,0.09-0.464,0.191c0.543,1.346,1.27,2.653,1.601,4.054c1.885,7.954,3.949,15.88,5.423,23.913
			c1.576,8.586,3.373,17.068,6.875,25.096c2.264,5.19,5.092,10.061,8.672,14.581c8.074-9.452,13.719-19.994,17.15-31.926
			c-1.72,0-3.201,0-4.445,0C-276.311,1.093-278.045,5.429-279.778,9.766z"/>
		<path d="M-276.014-33.544c-0.034,0.707-0.073,1.213-0.08,1.719c-0.012,0.899-0.003,1.797-0.003,2.926c0.854,0,1.549,0,2.244,0
			c7.037,0,14.077,0.107,21.111-0.044c3.65-0.079,6.717,2.722,8.168,5.648c0.446,0.898,0.34,1.841-1.097,1.816
			c-1.301-0.023-2.603-0.006-3.904-0.006c-9.057,0-18.116-0.089-27.172,0.047c-3.219,0.048-5.909-2.196-5.655-5.639
			c0.22-2.981,0.028-5.992,0.051-8.989c0.022-2.933,1.966-4.885,4.869-4.89c13.096-0.02,26.193-0.031,39.289-0.039
			c2.196-0.001,2.474,0.424,1.316,2.364c-1.885,3.157-4.254,5.247-8.405,5.158C-255.44-33.691-265.605-33.544-276.014-33.544z
			 M-245.872-23.247c-2.079-2.685-4.242-4.12-7.346-4.086c-7.17,0.079-14.342-0.03-21.511,0.064
			c-1.762,0.023-2.342-0.553-2.171-2.24c0.111-1.097,0.127-2.227-0.003-3.32c-0.226-1.891,0.504-2.408,2.378-2.392
			c10.038,0.088,20.077,0.046,30.116,0.038c2.972-0.002,5.147-1.453,6.135-4.088c-0.337-0.015-0.655-0.042-0.974-0.042
			c-12.451-0.002-24.902-0.004-37.353,0.006c-0.579,0-1.164,0.084-1.736,0.184c-2.045,0.355-3.211,1.669-3.23,3.701
			c-0.027,2.803-0.018,5.606-0.003,8.409c0.011,1.956,1.042,3.152,2.899,3.607c0.748,0.183,1.542,0.252,2.315,0.253
			c9.387,0.017,18.774,0.012,28.161,0.007C-247.562-23.143-246.93-23.198-245.872-23.247z"/>
		<path d="M-250.035-11.27c-5.577,0-10.709,0-15.841,0c-1.824,0-3.648,0.004-5.473-0.001c-2.663-0.008-5.054-1.303-6.893-3.904
			c0.838-0.049,1.495-0.12,2.152-0.121c8.926-0.007,17.851-0.006,26.777-0.004c4.383,0.001,4.809,0.418,4.101,4.677
			c-1.707,10.271-4.203,20.298-9.238,29.54c-4.766,8.748-11.181,16.007-19.633,21.998c-2.767-2.252-5.592-4.552-8.504-6.922
			c9.571-11.089,16.045-23.435,19.62-37.412c1.526,0,3.066,0,4.722,0c-1.817,7.472-4.455,14.601-8.146,21.272
			c-2.496,4.513-5.395,8.815-8.294,13.09c-1.786,2.633-1.938,2.53,0.79,4.56C-259.058,23.562-252.448,7.452-250.035-11.27z"/>
		<path d="M-279.778,9.766c1.733-4.336,3.467-8.673,5.255-13.146c1.245,0,2.725,0,4.445,0c-3.431,11.932-9.076,22.474-17.15,31.926
			c-3.58-4.52-6.408-9.391-8.672-14.581c-3.502-8.028-5.299-16.51-6.875-25.096c-1.475-8.033-3.539-15.959-5.423-23.913
			c-0.332-1.401-1.059-2.708-1.601-4.054c0.238-0.101,0.349-0.184,0.464-0.191c4.455-0.282,4.707-0.346,5.821,3.975
			c1.894,7.352,3.684,14.748,5.067,22.21c2.135,11.521,4.447,22.934,10.652,33.124c0.166,0.272,0.365,0.524,0.824,1.178
			c1.327-1.951,2.634-3.672,3.677-5.541c0.277-0.495-0.13-1.504-0.442-2.176c-3.913-8.436-6.237-17.305-7.671-26.477
			c-1.333-8.526-2.816-17.045-5.727-25.226c-0.082-0.231-0.05-0.502-0.07-0.741c3.196-0.927,4.751-0.256,5.492,2.86
			c1.666,7.005,3.307,14.026,4.616,21.103c1.455,7.869,2.87,15.722,5.924,23.17c0.212,0.518,0.491,1.009,0.738,1.513
			C-280.217,9.711-279.997,9.738-279.778,9.766z"/>
		<path d="M-245.872-23.247c-1.058,0.049-1.69,0.103-2.322,0.103c-9.387,0.005-18.774,0.009-28.161-0.007
			c-0.773-0.001-1.566-0.07-2.315-0.253c-1.857-0.455-2.888-1.651-2.899-3.607c-0.015-2.803-0.024-5.606,0.003-8.409
			c0.019-2.032,1.185-3.347,3.23-3.701c0.573-0.099,1.157-0.183,1.736-0.184c12.451-0.01,24.902-0.008,37.353-0.006
			c0.318,0,0.637,0.027,0.974,0.042c-0.988,2.634-3.163,4.085-6.135,4.088c-10.039,0.008-20.078,0.049-30.116-0.038
			c-1.873-0.016-2.603,0.501-2.378,2.392c0.13,1.093,0.114,2.223,0.003,3.32c-0.171,1.687,0.409,2.263,2.171,2.24
			c7.169-0.094,14.341,0.015,21.511-0.064C-250.114-27.367-247.95-25.931-245.872-23.247z"/>
	</g>
	<g>
		<path d="M-257.014,91.102c-0.49,2.153-0.831,4.023-1.343,5.845c-3.194,11.376-8.37,21.785-15.352,31.309
			c-0.315,0.43-0.52,0.942-1.006,1.843c10.107-4.693,22.418-27.661,23.538-43.184c-2.941,0-5.88-0.003-8.818,0.001
			c-3.844,0.005-7.697,0.189-11.528-0.025c-3.802-0.213-6.467-2.468-8.247-5.724c-0.754-1.378,0.05-1.853,1.399-1.844
			c3.388,0.024,6.776,0.007,10.164,0.007c6.45,0,12.902,0.103,19.35-0.036c4.308-0.093,5.394,2.101,4.76,5.629
			c-1.696,9.442-3.649,18.825-7.736,27.624c-4.658,10.027-11.417,18.306-20.118,25.08c-1.474,1.148-2.578,1.306-4.006,0.004
			c-2.058-1.875-4.299-3.548-6.373-5.407c-1.78-1.595-1.637-2.038-0.193-4.027c3.413-4.697,7.001-9.302,9.993-14.26
			c3.906-6.472,6.73-13.492,8.515-20.868c0.361-1.49,0.932-2.113,2.466-1.989C-260.203,91.188-258.842,91.102-257.014,91.102z
			 M-250.035,85.095c-2.413,18.723-9.023,34.833-23.86,46.772c-2.727-2.03-2.575-1.927-0.79-4.56
			c2.899-4.275,5.797-8.577,8.294-13.09c3.69-6.671,6.329-13.8,8.146-21.272c-1.656,0-3.196,0-4.722,0
			c-3.575,13.977-10.049,26.323-19.62,37.412c2.913,2.371,5.737,4.67,8.504,6.922c8.453-5.991,14.867-13.25,19.633-21.998
			c5.035-9.242,7.531-19.269,9.238-29.54c0.708-4.259,0.282-4.676-4.101-4.677c-8.926-0.002-17.851-0.003-26.777,0.004
			c-0.657,0.001-1.314,0.072-2.152,0.121c1.839,2.601,4.23,3.897,6.893,3.904c1.824,0.005,3.648,0.001,5.473,0.001
			C-260.744,85.095-255.612,85.095-250.035,85.095z"/>
		<path d="M-280.053,104.332c1.56-4.141,3.063-7.777,4.268-11.508c0.457-1.414,1.052-1.784,2.424-1.749
			c4.897,0.125,5.146-0.744,3.468,4.726c-3.496,11.392-9.147,21.633-16.965,30.652c-0.074,0.086-0.235,0.097-0.848,0.331
			c-2.108-3.394-4.42-6.795-6.405-10.377c-4.811-8.682-7.275-18.157-8.962-27.856c-1.545-8.883-2.837-17.822-5.893-26.359
			c-0.58-1.62-1.475-3.136-2.313-4.652c-0.771-1.395-0.488-2.054,1.075-2.127c0.781-0.036,1.564-0.007,2.346-0.007
			c3.608,0,3.633-0.008,4.729,3.307c2.573,7.788,4.268,15.772,5.552,23.871c1.703,10.743,4.001,21.336,9.44,30.953
			c0.312,0.552,0.652,1.087,0.983,1.636c2.683-2.081,3.031-3.463,1.799-6.329c-3.378-7.86-5.496-16.063-6.805-24.51
			c-1.36-8.78-2.962-17.515-5.897-25.944c-0.969-2.782-0.805-2.987,2.084-2.985c3.348,0.002,4.21,0.445,4.968,3.667
			c1.692,7.196,3.308,14.415,4.697,21.674c1.355,7.083,2.53,14.193,5.142,20.96C-280.894,102.41-280.579,103.095-280.053,104.332z
			 M-279.778,106.132c-0.219-0.028-0.438-0.055-0.658-0.083c-0.248-0.504-0.526-0.995-0.738-1.513
			c-3.054-7.448-4.469-15.301-5.924-23.17c-1.309-7.078-2.95-14.098-4.616-21.103c-0.741-3.116-2.295-3.787-5.492-2.86
			c0.02,0.239-0.012,0.51,0.07,0.741c2.91,8.181,4.394,16.699,5.727,25.226c1.434,9.172,3.758,18.041,7.671,26.477
			c0.312,0.672,0.718,1.68,0.442,2.176c-1.043,1.869-2.35,3.591-3.677,5.541c-0.459-0.653-0.658-0.905-0.824-1.178
			c-6.205-10.19-8.516-21.603-10.652-33.124c-1.383-7.461-3.173-14.858-5.067-22.21c-1.113-4.321-1.365-4.257-5.821-3.975
			c-0.115,0.007-0.225,0.09-0.464,0.191c0.543,1.346,1.27,2.653,1.601,4.054c1.885,7.954,3.949,15.88,5.423,23.913
			c1.576,8.586,3.373,17.068,6.875,25.096c2.264,5.19,5.092,10.061,8.672,14.581c8.074-9.452,13.719-19.994,17.15-31.926
			c-1.72,0-3.201,0-4.445,0C-276.311,97.459-278.045,101.795-279.778,106.132z"/>
		<path d="M-276.014,62.822c-0.034,0.708-0.073,1.213-0.08,1.719c-0.012,0.899-0.003,1.797-0.003,2.926c0.854,0,1.549,0,2.244,0
			c7.037,0,14.077,0.107,21.111-0.044c3.65-0.079,6.717,2.722,8.168,5.648c0.446,0.898,0.34,1.841-1.097,1.816
			c-1.301-0.023-2.603-0.006-3.904-0.006c-9.057,0-18.116-0.089-27.172,0.047c-3.219,0.048-5.909-2.196-5.655-5.639
			c0.22-2.981,0.028-5.992,0.051-8.989c0.022-2.933,1.966-4.885,4.869-4.89c13.096-0.02,26.193-0.031,39.289-0.039
			c2.196-0.001,2.474,0.424,1.316,2.364c-1.885,3.157-4.254,5.247-8.405,5.158C-255.44,62.675-265.605,62.822-276.014,62.822z
			 M-245.872,73.119c-2.079-2.685-4.242-4.12-7.346-4.086c-7.17,0.079-14.342-0.03-21.511,0.064
			c-1.762,0.023-2.342-0.553-2.171-2.24c0.111-1.097,0.127-2.227-0.003-3.32c-0.226-1.891,0.504-2.408,2.378-2.392
			c10.038,0.088,20.077,0.046,30.116,0.038c2.972-0.002,5.147-1.453,6.135-4.088c-0.337-0.015-0.655-0.042-0.974-0.042
			c-12.451-0.002-24.902-0.004-37.353,0.006c-0.579,0-1.164,0.084-1.736,0.184c-2.045,0.355-3.211,1.669-3.23,3.701
			c-0.027,2.803-0.018,5.606-0.003,8.409c0.011,1.956,1.042,3.152,2.899,3.607c0.748,0.183,1.542,0.252,2.315,0.253
			c9.387,0.017,18.774,0.012,28.161,0.007C-247.562,73.222-246.93,73.168-245.872,73.119z"/>
		<path style="fill:#FFFFFF;" d="M-250.035,85.095c-5.577,0-10.709,0-15.841,0c-1.824,0-3.648,0.004-5.473-0.001
			c-2.663-0.008-5.054-1.303-6.893-3.904c0.838-0.049,1.495-0.12,2.152-0.121c8.926-0.007,17.851-0.006,26.777-0.004
			c4.383,0.001,4.809,0.418,4.101,4.677c-1.707,10.271-4.203,20.298-9.238,29.54c-4.766,8.748-11.181,16.007-19.633,21.998
			c-2.767-2.252-5.592-4.552-8.504-6.922c9.571-11.089,16.045-23.435,19.62-37.412c1.526,0,3.066,0,4.722,0
			c-1.817,7.472-4.455,14.601-8.146,21.272c-2.496,4.513-5.395,8.815-8.294,13.09c-1.786,2.633-1.938,2.53,0.79,4.56
			C-259.058,119.928-252.448,103.818-250.035,85.095z"/>
		<path style="fill:#FFFFFF;" d="M-279.778,106.132c1.733-4.336,3.467-8.673,5.255-13.146c1.245,0,2.725,0,4.445,0
			c-3.431,11.932-9.076,22.474-17.15,31.926c-3.58-4.52-6.408-9.392-8.672-14.581c-3.502-8.028-5.299-16.51-6.875-25.096
			c-1.475-8.033-3.539-15.959-5.423-23.913c-0.332-1.401-1.059-2.708-1.601-4.054c0.238-0.101,0.349-0.184,0.464-0.191
			c4.455-0.282,4.707-0.346,5.821,3.975c1.894,7.352,3.684,14.748,5.067,22.21c2.135,11.521,4.447,22.934,10.652,33.124
			c0.166,0.272,0.365,0.524,0.824,1.178c1.327-1.951,2.634-3.672,3.677-5.541c0.277-0.495-0.13-1.504-0.442-2.176
			c-3.913-8.436-6.237-17.305-7.671-26.477c-1.333-8.526-2.816-17.045-5.727-25.226c-0.082-0.231-0.05-0.502-0.07-0.741
			c3.196-0.927,4.751-0.256,5.492,2.86c1.666,7.005,3.307,14.026,4.616,21.103c1.455,7.869,2.87,15.722,5.924,23.17
			c0.212,0.518,0.491,1.009,0.738,1.513C-280.217,106.077-279.997,106.104-279.778,106.132z"/>
		<path style="fill:#FFFFFF;" d="M-245.872,73.119c-1.058,0.049-1.69,0.103-2.322,0.104c-9.387,0.005-18.774,0.009-28.161-0.007
			c-0.773-0.001-1.566-0.07-2.315-0.253c-1.857-0.455-2.888-1.651-2.899-3.607c-0.015-2.803-0.024-5.606,0.003-8.409
			c0.019-2.032,1.185-3.347,3.23-3.701c0.573-0.099,1.157-0.183,1.736-0.184c12.451-0.01,24.902-0.008,37.353-0.006
			c0.318,0,0.637,0.027,0.974,0.042c-0.988,2.634-3.163,4.085-6.135,4.088c-10.039,0.008-20.078,0.049-30.116-0.038
			c-1.873-0.016-2.603,0.501-2.378,2.392c0.13,1.093,0.114,2.223,0.003,3.32c-0.171,1.687,0.409,2.263,2.171,2.24
			c7.169-0.094,14.341,0.015,21.511-0.064C-250.114,68.999-247.95,70.434-245.872,73.119z"/>
	</g>
	<path d="M-582.776,225.172c-0.35,1.071-0.594,2.001-0.96,2.907c-2.284,5.657-5.987,10.834-10.98,15.569
		c-0.226,0.214-0.372,0.469-0.719,0.916c7.228-2.334,16.034-13.756,16.835-21.475c-2.104,0-4.205-0.002-6.307,0
		c-2.749,0.003-5.505,0.094-8.245-0.013c-2.72-0.106-4.625-1.228-5.899-2.847c-0.539-0.685,0.035-0.922,1.001-0.917
		c2.423,0.012,4.846,0.003,7.269,0.003c4.613,0,9.228,0.051,13.839-0.018c3.081-0.046,3.858,1.045,3.405,2.799
		c-1.213,4.696-2.61,9.362-5.533,13.737c-3.331,4.986-8.166,9.103-14.389,12.472c-1.054,0.571-1.844,0.649-2.865,0.002
		c-1.472-0.932-3.075-1.764-4.558-2.689c-1.273-0.793-1.171-1.014-0.138-2.002c2.441-2.336,5.007-4.626,7.147-7.092
		c2.793-3.219,4.813-6.709,6.09-10.377c0.258-0.741,0.667-1.051,1.764-0.989C-585.057,225.215-584.084,225.172-582.776,225.172z
		 M-577.785,222.185c-1.726,9.311-6.454,17.322-17.065,23.259c-1.951-1.009-1.842-0.958-0.565-2.268
		c2.073-2.126,4.146-4.265,5.932-6.509c2.639-3.318,4.527-6.862,5.826-10.578c-1.185,0-2.286,0-3.377,0
		c-2.557,6.95-7.187,13.09-14.033,18.604c2.083,1.179,4.103,2.322,6.082,3.442c6.045-2.979,10.634-6.589,14.042-10.939
		c3.601-4.596,5.386-9.582,6.607-14.69c0.506-2.118,0.202-2.325-2.933-2.326c-6.384-0.001-12.768-0.001-19.152,0.002
		c-0.47,0-0.94,0.036-1.539,0.06c1.315,1.294,3.026,1.938,4.93,1.942c1.305,0.003,2.609,0.001,3.914,0.001
		C-585.444,222.185-581.774,222.185-577.785,222.185z"/>
	<path d="M-597.296,232.724c1.116-2.059,2.191-3.867,3.053-5.723c0.327-0.703,0.753-0.887,1.734-0.87
		c3.503,0.062,3.681-0.37,2.48,2.35c-2.5,5.665-6.542,10.758-12.134,15.243c-0.053,0.043-0.168,0.048-0.606,0.165
		c-1.508-1.688-3.161-3.379-4.581-5.161c-3.441-4.317-5.203-9.029-6.41-13.852c-1.105-4.417-2.029-8.863-4.215-13.108
		c-0.415-0.806-1.055-1.56-1.654-2.313c-0.552-0.694-0.349-1.021,0.769-1.058c0.558-0.018,1.119-0.004,1.678-0.004
		c2.581,0,2.599-0.004,3.382,1.645c1.84,3.873,3.053,7.843,3.971,11.871c1.218,5.342,2.861,10.61,6.752,15.393
		c0.223,0.274,0.467,0.54,0.703,0.814c1.919-1.035,2.168-1.722,1.286-3.148c-2.416-3.908-3.931-7.988-4.867-12.188
		c-0.973-4.366-2.119-8.71-4.218-12.901c-0.693-1.383-0.576-1.485,1.491-1.484c2.394,0.001,3.011,0.221,3.553,1.824
		c1.21,3.578,2.366,7.168,3.359,10.778c0.969,3.522,1.81,7.058,3.678,10.423C-597.898,231.768-597.673,232.109-597.296,232.724z
		 M-597.1,233.619c-0.157-0.014-0.314-0.027-0.47-0.041c-0.177-0.25-0.376-0.495-0.528-0.752c-2.184-3.704-3.196-7.609-4.237-11.522
		c-0.936-3.52-2.11-7.011-3.301-10.494c-0.53-1.549-1.642-1.883-3.928-1.422c0.014,0.119-0.009,0.254,0.05,0.368
		c2.082,4.068,3.143,8.304,4.096,12.544c1.026,4.561,2.687,8.972,5.486,13.167c0.223,0.334,0.514,0.836,0.316,1.082
		c-0.746,0.929-1.681,1.786-2.63,2.756c-0.328-0.325-0.471-0.45-0.589-0.586c-4.438-5.067-6.091-10.743-7.618-16.472
		c-0.989-3.71-2.27-7.389-3.624-11.045c-0.796-2.149-0.976-2.117-4.163-1.977c-0.082,0.004-0.161,0.045-0.332,0.095
		c0.388,0.67,0.908,1.32,1.145,2.016c1.348,3.955,2.824,7.897,3.879,11.892c1.127,4.27,2.412,8.488,4.917,12.48
		c1.619,2.581,3.642,5.003,6.202,7.251c5.774-4.7,9.812-9.943,12.266-15.877c-1.23,0-2.289,0-3.18,0
		C-594.62,229.306-595.86,231.462-597.1,233.619z"/>
	<path d="M-597.165,212.421c-0.025,0.352-0.053,0.603-0.057,0.855c-0.008,0.447-0.002,0.894-0.002,1.455c0.611,0,1.108,0,1.605,0
		c5.033,0,10.068,0.053,15.099-0.022c2.61-0.039,4.804,1.354,5.842,2.809c0.319,0.447,0.243,0.915-0.784,0.903
		c-0.93-0.011-1.861-0.003-2.792-0.003c-6.478,0-12.957-0.044-19.434,0.024c-2.302,0.024-4.226-1.092-4.045-2.804
		c0.157-1.483,0.02-2.98,0.036-4.47c0.015-1.458,1.406-2.43,3.482-2.432c9.367-0.01,18.734-0.016,28.1-0.019
		c1.571-0.001,1.769,0.211,0.941,1.175c-1.348,1.57-3.043,2.609-6.012,2.565C-582.45,212.348-589.72,212.421-597.165,212.421z
		 M-575.607,217.542c-1.487-1.335-3.034-2.049-5.254-2.032c-5.128,0.039-10.258-0.015-15.385,0.032
		c-1.26,0.012-1.675-0.275-1.553-1.114c0.08-0.545,0.091-1.107-0.002-1.651c-0.161-0.94,0.361-1.198,1.701-1.19
		c7.18,0.044,14.36,0.023,21.54,0.019c2.126-0.001,3.681-0.723,4.388-2.033c-0.241-0.008-0.469-0.021-0.696-0.021
		c-8.905-0.001-17.81-0.002-26.715,0.003c-0.414,0-0.832,0.042-1.242,0.091c-1.463,0.176-2.297,0.83-2.31,1.841
		c-0.019,1.394-0.013,2.788-0.002,4.182c0.008,0.973,0.745,1.568,2.074,1.794c0.535,0.091,1.103,0.125,1.656,0.126
		c6.714,0.008,13.428,0.006,20.141,0.004C-576.815,217.593-576.363,217.566-575.607,217.542z"/>
	<path style="fill:#FFFFFF;" d="M-577.785,222.185c-3.989,0-7.659,0-11.33,0c-1.305,0-2.609,0.002-3.914-0.001
		c-1.904-0.004-3.615-0.648-4.93-1.942c0.599-0.024,1.069-0.06,1.539-0.06c6.384-0.004,12.768-0.003,19.152-0.002
		c3.135,0.001,3.439,0.208,2.933,2.326c-1.221,5.107-3.006,10.094-6.607,14.69c-3.409,4.35-7.997,7.96-14.042,10.939
		c-1.979-1.12-3.999-2.263-6.082-3.442c6.846-5.514,11.476-11.654,14.033-18.604c1.092,0,2.193,0,3.377,0
		c-1.299,3.716-3.187,7.261-5.826,10.578c-1.786,2.244-3.859,4.384-5.932,6.509c-1.277,1.31-1.386,1.258,0.565,2.268
		C-584.238,239.507-579.511,231.496-577.785,222.185z"/>
	<path style="fill:#FFFFFF;" d="M-597.1,233.619c1.24-2.156,2.48-4.313,3.758-6.537c0.89,0,1.949,0,3.18,0
		c-2.454,5.934-6.492,11.176-12.266,15.877c-2.56-2.248-4.583-4.67-6.202-7.251c-2.505-3.992-3.79-8.21-4.917-12.48
		c-1.055-3.995-2.531-7.936-3.879-11.892c-0.237-0.697-0.757-1.347-1.145-2.016c0.171-0.05,0.249-0.091,0.332-0.095
		c3.187-0.14,3.367-0.172,4.163,1.977c1.355,3.656,2.635,7.334,3.624,11.045c1.527,5.729,3.181,11.405,7.618,16.472
		c0.119,0.135,0.261,0.261,0.589,0.586c0.949-0.97,1.884-1.826,2.63-2.756c0.198-0.246-0.093-0.748-0.316-1.082
		c-2.799-4.195-4.461-8.605-5.486-13.167c-0.953-4.24-2.014-8.476-4.096-12.544c-0.059-0.115-0.036-0.25-0.05-0.368
		c2.286-0.461,3.398-0.127,3.928,1.422c1.191,3.484,2.365,6.975,3.301,10.494c1.041,3.913,2.053,7.818,4.237,11.522
		c0.152,0.258,0.351,0.502,0.528,0.752C-597.413,233.592-597.256,233.605-597.1,233.619z"/>
	<path style="fill:#FFFFFF;" d="M-575.607,217.542c-0.757,0.024-1.209,0.051-1.661,0.051c-6.714,0.003-13.428,0.005-20.141-0.004
		c-0.553-0.001-1.12-0.035-1.656-0.126c-1.328-0.226-2.066-0.821-2.074-1.794c-0.011-1.394-0.017-2.788,0.002-4.182
		c0.014-1.011,0.848-1.664,2.31-1.841c0.41-0.049,0.828-0.091,1.242-0.091c8.905-0.005,17.81-0.004,26.715-0.003
		c0.228,0,0.455,0.013,0.696,0.021c-0.707,1.31-2.262,2.032-4.388,2.033c-7.18,0.004-14.36,0.025-21.54-0.019
		c-1.34-0.008-1.862,0.249-1.701,1.19c0.093,0.543,0.082,1.105,0.002,1.651c-0.122,0.839,0.293,1.125,1.553,1.114
		c5.128-0.047,10.257,0.007,15.385-0.032C-578.641,215.493-577.093,216.206-575.607,217.542z"/>
	<path d="M-561.728,178.965c-0.189,1.178-0.321,2.201-0.519,3.197c-1.235,6.222-3.236,11.916-5.935,17.125
		c-0.122,0.235-0.201,0.515-0.389,1.008c3.907-2.567,8.667-15.13,9.1-23.62c-1.137,0-2.273-0.002-3.409,0
		c-1.486,0.003-2.976,0.103-4.457-0.014c-1.47-0.116-2.5-1.35-3.188-3.131c-0.291-0.754,0.019-1.014,0.541-1.008
		c1.31,0.013,2.62,0.004,3.929,0.004c2.494,0,4.988,0.056,7.481-0.02c1.666-0.051,2.085,1.149,1.84,3.079
		c-0.656,5.165-1.411,10.297-2.991,15.109c-1.801,5.484-4.414,10.013-7.778,13.718c-0.57,0.628-0.997,0.714-1.549,0.002
		c-0.796-1.026-1.662-1.941-2.464-2.958c-0.688-0.873-0.633-1.115-0.075-2.202c1.319-2.569,2.706-5.088,3.863-7.8
		c1.51-3.54,2.602-7.38,3.292-11.414c0.139-0.815,0.36-1.156,0.953-1.088C-562.961,179.012-562.435,178.965-561.728,178.965z
		 M-559.03,175.68c-0.933,10.241-3.488,19.053-9.224,25.583c-1.054-1.11-0.996-1.054-0.305-2.494
		c1.121-2.338,2.241-4.691,3.206-7.16c1.427-3.649,2.447-7.548,3.149-11.635c-0.64,0-1.235,0-1.826,0
		c-1.382,7.645-3.885,14.398-7.585,20.463c1.126,1.297,2.218,2.554,3.288,3.786c3.268-3.277,5.748-7.248,7.59-12.032
		c1.947-5.055,2.912-10.54,3.571-16.157c0.274-2.33,0.109-2.558-1.585-2.558c-3.451-0.001-6.901-0.002-10.352,0.002
		c-0.254,0-0.508,0.039-0.832,0.066c0.711,1.423,1.635,2.131,2.665,2.136c0.705,0.003,1.41,0.001,2.116,0.001
		C-563.17,175.68-561.186,175.68-559.03,175.68z"/>
	<path d="M-569.576,187.271c0.603-2.265,1.184-4.254,1.65-6.295c0.177-0.773,0.407-0.976,0.937-0.956
		c1.893,0.068,1.989-0.407,1.341,2.585c-1.351,6.231-3.536,11.833-6.559,16.766c-0.029,0.047-0.091,0.053-0.328,0.181
		c-0.815-1.857-1.709-3.717-2.476-5.676c-1.86-4.749-2.813-9.931-3.465-15.236c-0.597-4.859-1.097-9.748-2.278-14.418
		c-0.224-0.886-0.57-1.715-0.894-2.544c-0.298-0.763-0.189-1.124,0.416-1.163c0.302-0.02,0.605-0.004,0.907-0.004
		c1.395,0,1.405-0.005,1.828,1.809c0.995,4.26,1.65,8.627,2.146,13.057c0.658,5.876,1.547,11.67,3.649,16.931
		c0.121,0.302,0.252,0.594,0.38,0.895c1.037-1.138,1.172-1.894,0.695-3.462c-1.306-4.299-2.125-8.786-2.631-13.406
		c-0.526-4.802-1.145-9.58-2.28-14.19c-0.375-1.522-0.311-1.634,0.806-1.632c1.294,0.001,1.628,0.244,1.921,2.006
		c0.654,3.936,1.279,7.885,1.816,11.855c0.524,3.874,0.978,7.763,1.988,11.464C-569.901,186.22-569.78,186.594-569.576,187.271z
		 M-569.47,188.256c-0.085-0.015-0.169-0.03-0.254-0.045c-0.096-0.275-0.203-0.544-0.285-0.827
		c-1.181-4.074-1.728-8.369-2.29-12.673c-0.506-3.871-1.14-7.711-1.784-11.543c-0.286-1.704-0.887-2.071-2.123-1.564
		c0.008,0.131-0.005,0.279,0.027,0.405c1.125,4.475,1.699,9.134,2.214,13.798c0.554,5.017,1.453,9.868,2.966,14.482
		c0.12,0.367,0.278,0.919,0.171,1.19c-0.403,1.022-0.909,1.964-1.421,3.031c-0.177-0.357-0.254-0.495-0.318-0.644
		c-2.399-5.574-3.292-11.816-4.118-18.118c-0.535-4.081-1.227-8.127-1.959-12.148c-0.43-2.363-0.528-2.328-2.25-2.174
		c-0.044,0.004-0.087,0.049-0.179,0.104c0.21,0.736,0.491,1.451,0.619,2.218c0.729,4.351,1.527,8.686,2.097,13.08
		c0.609,4.696,1.304,9.336,2.658,13.727c0.875,2.839,1.969,5.503,3.353,7.976c3.121-5.17,5.304-10.936,6.63-17.463
		c-0.665,0-1.237,0-1.719,0C-568.13,183.512-568.8,185.884-569.47,188.256z"/>
	<path d="M-569.505,164.94c-0.013,0.387-0.028,0.664-0.031,0.94c-0.004,0.491-0.001,0.983-0.001,1.601c0.33,0,0.599,0,0.867,0
		c2.721,0,5.442,0.059,8.162-0.024c1.411-0.043,2.597,1.489,3.158,3.09c0.172,0.491,0.131,1.007-0.424,0.993
		c-0.503-0.012-1.006-0.003-1.509-0.003c-3.502,0-7.004-0.048-10.505,0.026c-1.245,0.026-2.284-1.201-2.186-3.085
		c0.085-1.631,0.011-3.277,0.02-4.917c0.008-1.604,0.76-2.672,1.882-2.675c5.063-0.011,10.126-0.017,15.189-0.021
		c0.849-0.001,0.956,0.232,0.509,1.293c-0.729,1.727-1.645,2.87-3.25,2.821C-561.551,164.859-565.481,164.94-569.505,164.94z
		 M-557.852,170.572c-0.804-1.469-1.64-2.254-2.84-2.235c-2.772,0.043-5.544-0.016-8.316,0.035
		c-0.681,0.013-0.905-0.302-0.839-1.225c0.043-0.6,0.049-1.218-0.001-1.816c-0.087-1.034,0.195-1.317,0.919-1.308
		c3.881,0.048,7.762,0.025,11.643,0.021c1.149-0.001,1.99-0.795,2.372-2.236c-0.13-0.008-0.253-0.023-0.376-0.023
		c-4.813-0.001-9.627-0.002-14.44,0.003c-0.224,0-0.45,0.046-0.671,0.1c-0.791,0.194-1.241,0.913-1.249,2.025
		c-0.01,1.533-0.007,3.066-0.001,4.6c0.004,1.07,0.403,1.724,1.121,1.973c0.289,0.1,0.596,0.138,0.895,0.139
		c3.629,0.009,7.258,0.007,10.887,0.004C-558.506,170.628-558.261,170.599-557.852,170.572z"/>
	<path style="fill:#FFFFFF;" d="M-559.03,175.68c-2.156,0-4.14,0-6.124,0c-0.705,0-1.411,0.002-2.116-0.001
		c-1.029-0.004-1.954-0.713-2.665-2.136c0.324-0.027,0.578-0.066,0.832-0.066c3.451-0.004,6.901-0.004,10.352-0.002
		c1.695,0.001,1.859,0.229,1.585,2.558c-0.66,5.618-1.625,11.102-3.571,16.157c-1.842,4.785-4.322,8.756-7.59,12.032
		c-1.07-1.232-2.162-2.49-3.288-3.786c3.7-6.065,6.203-12.818,7.585-20.463c0.59,0,1.185,0,1.826,0
		c-0.702,4.087-1.722,7.986-3.149,11.635c-0.965,2.468-2.086,4.822-3.206,7.16c-0.69,1.44-0.749,1.384,0.305,2.494
		C-562.518,194.732-559.963,185.92-559.03,175.68z"/>
	<path style="fill:#FFFFFF;" d="M-569.47,188.256c0.67-2.372,1.34-4.744,2.032-7.19c0.481,0,1.054,0,1.719,0
		c-1.326,6.526-3.509,12.293-6.63,17.463c-1.384-2.472-2.477-5.137-3.353-7.976c-1.354-4.391-2.048-9.03-2.658-13.727
		c-0.57-4.394-1.368-8.729-2.097-13.08c-0.128-0.766-0.409-1.481-0.619-2.218c0.092-0.055,0.135-0.1,0.179-0.104
		c1.722-0.154,1.82-0.189,2.25,2.174c0.732,4.021,1.424,8.067,1.959,12.148c0.825,6.302,1.719,12.544,4.118,18.118
		c0.064,0.149,0.141,0.287,0.318,0.644c0.513-1.067,1.018-2.009,1.421-3.031c0.107-0.271-0.05-0.823-0.171-1.19
		c-1.513-4.614-2.411-9.465-2.966-14.482c-0.515-4.664-1.089-9.323-2.214-13.798c-0.032-0.126-0.019-0.275-0.027-0.405
		c1.236-0.507,1.837-0.14,2.123,1.564c0.644,3.832,1.278,7.672,1.784,11.543c0.563,4.304,1.11,8.599,2.29,12.673
		c0.082,0.283,0.19,0.552,0.285,0.827C-569.639,188.225-569.555,188.241-569.47,188.256z"/>
	<path style="fill:#FFFFFF;" d="M-557.852,170.572c-0.409,0.027-0.653,0.056-0.898,0.057c-3.629,0.003-7.258,0.005-10.887-0.004
		c-0.299-0.001-0.606-0.038-0.895-0.139c-0.718-0.249-1.117-0.903-1.121-1.973c-0.006-1.533-0.009-3.066,0.001-4.6
		c0.007-1.112,0.458-1.831,1.249-2.025c0.221-0.054,0.447-0.1,0.671-0.1c4.813-0.006,9.627-0.004,14.44-0.003
		c0.123,0,0.246,0.015,0.376,0.023c-0.382,1.441-1.223,2.235-2.372,2.236c-3.881,0.004-7.762,0.027-11.643-0.021
		c-0.724-0.009-1.006,0.274-0.919,1.308c0.05,0.598,0.044,1.216,0.001,1.816c-0.066,0.923,0.158,1.238,0.839,1.225
		c2.772-0.052,5.544,0.008,8.316-0.035C-559.492,168.318-558.656,169.104-557.852,170.572z"/>
	<path style="fill:#FFFFFF;" d="M-483.422-185.255c-0.43,1.891-0.73,3.533-1.179,5.133c-2.804,9.989-7.35,19.129-13.48,27.491
		c-0.277,0.378-0.456,0.827-0.883,1.618c8.874-4.121,19.685-24.289,20.668-37.918c-2.583,0-5.163-0.003-7.743,0.001
		c-3.375,0.004-6.758,0.166-10.122-0.022c-3.339-0.187-5.678-2.167-7.242-5.026c-0.662-1.21,0.044-1.627,1.229-1.619
		c2.975,0.021,5.95,0.006,8.925,0.006c5.664,0,11.329,0.09,16.99-0.032c3.783-0.081,4.736,1.845,4.18,4.942
		c-1.489,8.291-3.204,16.53-6.793,24.256c-4.09,8.804-10.025,16.074-17.666,22.022c-1.294,1.008-2.263,1.147-3.518,0.004
		c-1.807-1.646-3.775-3.116-5.596-4.748c-1.563-1.401-1.438-1.79-0.169-3.536c2.997-4.124,6.147-8.168,8.774-12.522
		c3.429-5.683,5.909-11.847,7.477-18.323c0.317-1.309,0.819-1.855,2.166-1.747C-486.223-185.18-485.028-185.255-483.422-185.255z
		 M-477.294-190.529c-2.119,16.44-7.923,30.586-20.951,41.07c-2.395-1.782-2.261-1.692-0.693-4.004
		c2.545-3.753,5.09-7.531,7.282-11.494c3.24-5.858,5.557-12.117,7.153-18.678c-1.454,0-2.806,0-4.146,0
		c-3.139,12.273-8.824,23.113-17.228,32.85c2.558,2.082,5.038,4.101,7.467,6.078c7.422-5.26,13.055-11.635,17.24-19.316
		c4.421-8.115,6.613-16.92,8.111-25.938c0.621-3.74,0.248-4.106-3.601-4.107c-7.837-0.002-15.675-0.003-23.512,0.004
		c-0.577,0-1.154,0.063-1.889,0.106c1.615,2.284,3.715,3.422,6.053,3.428c1.602,0.005,3.204,0.001,4.805,0.001
		C-486.697-190.529-482.191-190.529-477.294-190.529z"/>
	<path style="fill:#FFFFFF;" d="M-503.652-173.638c1.37-3.636,2.689-6.829,3.748-10.105c0.401-1.241,0.924-1.566,2.128-1.535
		c4.3,0.109,4.519-0.653,3.045,4.15c-3.07,10.003-8.031,18.996-14.897,26.915c-0.065,0.075-0.206,0.085-0.744,0.291
		c-1.851-2.98-3.881-5.967-5.624-9.112c-4.225-7.623-6.388-15.943-7.869-24.459c-1.356-7.8-2.491-15.649-5.175-23.145
		c-0.509-1.422-1.295-2.754-2.031-4.085c-0.677-1.225-0.429-1.804,0.944-1.867c0.685-0.032,1.373-0.006,2.06-0.006
		c3.168,0,3.19-0.007,4.152,2.904c2.259,6.838,3.748,13.849,4.875,20.96c1.495,9.433,3.513,18.735,8.289,27.179
		c0.274,0.484,0.573,0.954,0.864,1.436c2.356-1.827,2.661-3.04,1.579-5.558c-2.966-6.901-4.826-14.105-5.975-21.521
		c-1.194-7.709-2.601-15.38-5.178-22.78c-0.851-2.443-0.707-2.622,1.83-2.621c2.939,0.002,3.697,0.391,4.362,3.22
		c1.485,6.318,2.904,12.657,4.124,19.031c1.19,6.219,2.222,12.462,4.515,18.404C-504.391-175.326-504.114-174.725-503.652-173.638z
		 M-503.411-172.058c-0.193-0.024-0.385-0.048-0.577-0.073c-0.217-0.442-0.462-0.873-0.648-1.328
		c-2.681-6.54-3.924-13.436-5.202-20.345c-1.149-6.215-2.59-12.379-4.053-18.53c-0.651-2.736-2.016-3.325-4.822-2.511
		c0.018,0.21-0.011,0.448,0.061,0.651c2.556,7.183,3.858,14.663,5.029,22.15c1.259,8.054,3.299,15.841,6.736,23.249
		c0.274,0.59,0.631,1.475,0.388,1.911c-0.916,1.641-2.064,3.153-3.228,4.866c-0.403-0.574-0.578-0.795-0.723-1.034
		c-5.448-8.948-7.478-18.969-9.353-29.086c-1.214-6.552-2.786-13.046-4.449-19.502c-0.977-3.794-1.199-3.738-5.111-3.49
		c-0.101,0.006-0.198,0.079-0.407,0.168c0.477,1.182,1.115,2.33,1.406,3.56c1.655,6.984,3.467,13.944,4.762,20.997
		c1.384,7.539,2.962,14.987,6.037,22.036c1.988,4.557,4.471,8.835,7.615,12.804c7.089-8.3,12.046-17.557,15.059-28.034
		c-1.51,0-2.811,0-3.904,0C-500.367-179.673-501.889-175.866-503.411-172.058z"/>
	<path style="fill:#FFFFFF;" d="M-500.105-210.087c-0.03,0.621-0.065,1.065-0.07,1.51c-0.01,0.789-0.003,1.578-0.003,2.57
		c0.75,0,1.36,0,1.97,0c6.179,0,12.361,0.094,18.537-0.039c3.205-0.069,5.898,2.39,7.172,4.96c0.391,0.789,0.298,1.616-0.963,1.594
		c-1.142-0.02-2.285-0.006-3.428-0.006c-7.953,0-15.907-0.078-23.859,0.042c-2.827,0.042-5.188-1.928-4.966-4.952
		c0.193-2.618,0.025-5.261,0.044-7.893c0.019-2.575,1.727-4.29,4.275-4.294c11.5-0.017,22.999-0.027,34.499-0.034
		c1.929-0.001,2.172,0.372,1.155,2.076c-1.655,2.772-3.736,4.608-7.381,4.529C-482.04-210.216-490.966-210.087-500.105-210.087z
		 M-473.639-201.045c-1.825-2.358-3.725-3.618-6.45-3.588c-6.296,0.07-12.593-0.026-18.888,0.056
		c-1.547,0.02-2.057-0.485-1.906-1.967c0.098-0.963,0.112-1.955-0.003-2.915c-0.198-1.66,0.443-2.115,2.088-2.1
		c8.814,0.077,17.63,0.041,26.444,0.034c2.61-0.002,4.519-1.276,5.387-3.589c-0.296-0.013-0.575-0.037-0.855-0.037
		c-10.933-0.002-21.866-0.004-32.798,0.005c-0.509,0-1.022,0.074-1.525,0.161c-1.796,0.311-2.82,1.466-2.836,3.25
		c-0.023,2.461-0.016,4.923-0.002,7.384c0.009,1.718,0.915,2.768,2.546,3.167c0.657,0.161,1.354,0.221,2.033,0.222
		c8.242,0.015,16.485,0.011,24.728,0.006C-475.123-200.955-474.567-201.003-473.639-201.045z"/>
	<path style="fill:#FFFFFF;" d="M-548.938-190.82c-4.934,0-9.474,0-14.014,0c-1.614,0-3.228,0.004-4.842-0.001
		c-2.356-0.007-4.471-1.153-6.098-3.454c0.741-0.043,1.322-0.106,1.904-0.107c7.896-0.007,15.793-0.006,23.689-0.004
		c3.878,0.001,4.254,0.37,3.628,4.138c-1.51,9.086-3.718,17.957-8.173,26.134c-4.216,7.739-9.892,14.162-17.369,19.462
		c-2.448-1.993-4.947-4.027-7.524-6.124c8.468-9.81,14.195-20.733,17.358-33.098c1.35,0,2.712,0,4.178,0
		c-1.607,6.611-3.942,12.917-7.206,18.819c-2.209,3.993-4.773,7.799-7.337,11.581c-1.58,2.33-1.714,2.239,0.699,4.034
		C-556.921-160.004-551.073-174.256-548.938-190.82z"/>
	<path style="fill:#FFFFFF;" d="M-575.252-172.209c1.534-3.836,3.067-7.673,4.649-11.63c1.101,0,2.411,0,3.933,0
		c-3.035,10.556-8.03,19.883-15.172,28.245c-3.167-3.999-5.669-8.309-7.672-12.9c-3.098-7.102-4.688-14.606-6.082-22.202
		c-1.305-7.106-3.13-14.119-4.798-21.155c-0.294-1.239-0.937-2.396-1.417-3.587c0.211-0.089,0.309-0.162,0.41-0.169
		c3.942-0.25,4.165-0.306,5.149,3.516c1.676,6.504,3.26,13.048,4.483,19.649c1.889,10.192,3.934,20.29,9.423,29.305
		c0.147,0.241,0.323,0.464,0.729,1.042c1.174-1.726,2.33-3.249,3.253-4.902c0.245-0.438-0.115-1.331-0.391-1.925
		c-3.462-7.463-5.518-15.309-6.786-23.424c-1.179-7.543-2.492-15.079-5.066-22.317c-0.073-0.204-0.044-0.444-0.062-0.655
		c2.828-0.82,4.203-0.226,4.858,2.53c1.474,6.197,2.925,12.408,4.083,18.67c1.288,6.961,2.539,13.909,5.241,20.498
		c0.188,0.458,0.434,0.893,0.653,1.338C-575.64-172.258-575.446-172.234-575.252-172.209z"/>
	<path style="fill:#FFFFFF;" d="M-545.255-201.415c-0.936,0.043-1.495,0.091-2.055,0.092c-8.305,0.005-16.609,0.008-24.914-0.006
		c-0.684-0.001-1.386-0.062-2.048-0.224c-1.643-0.402-2.555-1.46-2.565-3.191c-0.013-2.48-0.021-4.96,0.002-7.439
		c0.017-1.798,1.049-2.961,2.858-3.275c0.507-0.088,1.024-0.162,1.536-0.163c11.015-0.009,22.03-0.007,33.045-0.005
		c0.282,0,0.563,0.024,0.861,0.037c-0.874,2.33-2.798,3.614-5.428,3.616c-8.881,0.007-17.763,0.044-26.644-0.034
		c-1.657-0.014-2.303,0.443-2.104,2.116c0.115,0.967,0.101,1.966,0.003,2.937c-0.151,1.492,0.362,2.002,1.921,1.981
		c6.343-0.083,12.688,0.013,19.031-0.057C-549.008-205.06-547.094-203.791-545.255-201.415z"/>
	<path style="fill:#00CC00;" d="M-482.374-94.732c-0.43,1.891-0.73,3.533-1.179,5.133c-2.804,9.989-7.35,19.129-13.48,27.491
		c-0.277,0.378-0.456,0.827-0.883,1.618c8.874-4.121,19.685-24.289,20.668-37.918c-2.583,0-5.163-0.003-7.743,0.001
		c-3.375,0.004-6.758,0.166-10.122-0.022c-3.339-0.187-5.678-2.167-7.242-5.026c-0.662-1.21,0.044-1.627,1.229-1.619
		c2.975,0.021,5.95,0.006,8.925,0.006c5.664,0,11.329,0.09,16.99-0.032c3.783-0.082,4.736,1.845,4.18,4.942
		c-1.489,8.291-3.204,16.53-6.793,24.256c-4.09,8.804-10.025,16.074-17.666,22.022c-1.294,1.008-2.263,1.147-3.518,0.004
		c-1.807-1.646-3.775-3.116-5.596-4.748c-1.563-1.401-1.438-1.79-0.169-3.536c2.997-4.124,6.147-8.168,8.774-12.522
		c3.429-5.683,5.909-11.847,7.477-18.323c0.317-1.309,0.819-1.855,2.166-1.747C-485.175-94.656-483.98-94.732-482.374-94.732z
		 M-476.246-100.006c-2.119,16.44-7.923,30.586-20.951,41.07c-2.395-1.782-2.261-1.692-0.693-4.004
		c2.545-3.753,5.09-7.531,7.282-11.494c3.24-5.858,5.557-12.117,7.153-18.678c-1.454,0-2.806,0-4.146,0
		c-3.139,12.273-8.824,23.113-17.228,32.85c2.558,2.082,5.038,4.101,7.467,6.078c7.422-5.26,13.055-11.635,17.24-19.316
		c4.421-8.115,6.613-16.92,8.111-25.938c0.621-3.74,0.248-4.106-3.601-4.107c-7.837-0.002-15.675-0.003-23.512,0.004
		c-0.577,0-1.154,0.063-1.889,0.106c1.615,2.284,3.715,3.422,6.053,3.428c1.602,0.005,3.204,0.001,4.805,0.001
		C-485.649-100.006-481.143-100.006-476.246-100.006z"/>
	<path style="fill:#00CC00;" d="M-502.604-83.114c1.37-3.636,2.689-6.829,3.748-10.105c0.401-1.241,0.924-1.566,2.128-1.535
		c4.3,0.109,4.519-0.653,3.045,4.15c-3.07,10.003-8.031,18.996-14.897,26.915c-0.065,0.075-0.206,0.085-0.744,0.291
		c-1.851-2.98-3.881-5.967-5.624-9.112c-4.225-7.623-6.388-15.943-7.869-24.459c-1.356-7.8-2.491-15.649-5.175-23.145
		c-0.509-1.422-1.295-2.754-2.031-4.085c-0.677-1.225-0.428-1.804,0.944-1.867c0.685-0.032,1.373-0.006,2.06-0.006
		c3.168,0,3.19-0.007,4.152,2.904c2.259,6.838,3.748,13.849,4.875,20.96c1.496,9.433,3.513,18.735,8.289,27.179
		c0.274,0.484,0.573,0.954,0.863,1.436c2.356-1.827,2.661-3.04,1.579-5.558c-2.966-6.901-4.826-14.105-5.975-21.521
		c-1.194-7.709-2.601-15.38-5.178-22.78c-0.85-2.443-0.707-2.622,1.83-2.621c2.939,0.002,3.697,0.391,4.362,3.22
		c1.486,6.318,2.904,12.657,4.124,19.031c1.19,6.219,2.222,12.462,4.515,18.404C-503.343-84.802-503.066-84.201-502.604-83.114z
		 M-502.363-81.534c-0.192-0.024-0.385-0.048-0.577-0.073c-0.217-0.442-0.462-0.873-0.648-1.328
		c-2.681-6.54-3.924-13.436-5.202-20.345c-1.149-6.215-2.59-12.379-4.053-18.53c-0.651-2.736-2.015-3.325-4.822-2.511
		c0.018,0.21-0.011,0.448,0.062,0.651c2.556,7.183,3.858,14.663,5.029,22.15c1.259,8.054,3.299,15.841,6.736,23.249
		c0.274,0.59,0.631,1.475,0.388,1.911c-0.916,1.641-2.064,3.153-3.228,4.866c-0.403-0.574-0.578-0.795-0.723-1.034
		c-5.448-8.948-7.478-18.969-9.353-29.086c-1.214-6.552-2.786-13.046-4.449-19.502c-0.977-3.794-1.199-3.738-5.111-3.49
		c-0.101,0.006-0.198,0.079-0.407,0.168c0.477,1.182,1.115,2.33,1.406,3.56c1.655,6.984,3.467,13.944,4.762,20.997
		c1.384,7.539,2.962,14.987,6.037,22.036c1.988,4.557,4.471,8.835,7.615,12.804c7.089-8.299,12.046-17.557,15.059-28.034
		c-1.51,0-2.811,0-3.903,0C-499.319-89.149-500.841-85.342-502.363-81.534z"/>
	<path style="fill:#00CC00;" d="M-499.057-119.563c-0.03,0.621-0.065,1.065-0.07,1.51c-0.01,0.789-0.003,1.578-0.003,2.57
		c0.75,0,1.36,0,1.97,0c6.179,0,12.361,0.094,18.537-0.039c3.205-0.069,5.898,2.39,7.172,4.96c0.391,0.789,0.298,1.616-0.963,1.594
		c-1.142-0.02-2.285-0.006-3.428-0.006c-7.953,0-15.907-0.078-23.859,0.042c-2.827,0.042-5.188-1.928-4.966-4.952
		c0.193-2.618,0.025-5.261,0.044-7.893c0.019-2.575,1.727-4.29,4.275-4.294c11.5-0.017,22.999-0.027,34.499-0.034
		c1.929-0.001,2.172,0.372,1.155,2.076c-1.655,2.772-3.736,4.608-7.381,4.529C-480.992-119.693-489.918-119.563-499.057-119.563z
		 M-472.591-110.521c-1.825-2.358-3.725-3.618-6.45-3.588c-6.296,0.07-12.593-0.026-18.888,0.056
		c-1.547,0.02-2.057-0.485-1.906-1.967c0.098-0.963,0.112-1.955-0.003-2.915c-0.198-1.66,0.443-2.115,2.088-2.1
		c8.814,0.077,17.63,0.041,26.444,0.034c2.61-0.002,4.519-1.276,5.387-3.589c-0.296-0.013-0.575-0.037-0.855-0.037
		c-10.933-0.002-21.866-0.004-32.798,0.005c-0.509,0-1.022,0.074-1.525,0.161c-1.796,0.311-2.82,1.466-2.836,3.25
		c-0.023,2.461-0.016,4.923-0.002,7.384c0.009,1.718,0.915,2.768,2.546,3.167c0.657,0.161,1.354,0.221,2.033,0.222
		c8.242,0.015,16.485,0.011,24.728,0.006C-474.075-110.431-473.519-110.479-472.591-110.521z"/>
	<path style="fill:#00CC00;" d="M-547.89-100.296c-4.934,0-9.474,0-14.014,0c-1.614,0-3.228,0.004-4.842-0.001
		c-2.356-0.007-4.471-1.153-6.098-3.454c0.741-0.043,1.322-0.106,1.904-0.107c7.896-0.007,15.793-0.006,23.689-0.004
		c3.878,0.001,4.254,0.37,3.628,4.138c-1.51,9.086-3.718,17.957-8.173,26.134c-4.216,7.739-9.892,14.162-17.369,19.462
		c-2.448-1.993-4.947-4.027-7.524-6.124c8.468-9.81,14.195-20.733,17.358-33.098c1.35,0,2.712,0,4.178,0
		c-1.607,6.611-3.942,12.917-7.206,18.819c-2.209,3.993-4.773,7.799-7.337,11.581c-1.58,2.33-1.714,2.239,0.699,4.034
		C-555.873-69.48-550.025-83.733-547.89-100.296z"/>
	<path style="fill:#00CC00;" d="M-574.204-81.685c1.534-3.836,3.067-7.673,4.649-11.63c1.101,0,2.411,0,3.933,0
		c-3.035,10.556-8.03,19.883-15.172,28.245c-3.167-3.999-5.669-8.309-7.672-12.9c-3.098-7.102-4.688-14.606-6.082-22.202
		c-1.305-7.106-3.131-14.119-4.798-21.155c-0.294-1.239-0.937-2.396-1.417-3.587c0.211-0.089,0.309-0.162,0.41-0.169
		c3.942-0.25,4.165-0.306,5.149,3.516c1.676,6.504,3.26,13.048,4.483,19.649c1.889,10.192,3.934,20.29,9.423,29.305
		c0.147,0.241,0.323,0.464,0.729,1.042c1.174-1.726,2.33-3.249,3.253-4.902c0.245-0.438-0.115-1.331-0.391-1.925
		c-3.462-7.463-5.518-15.309-6.786-23.424c-1.179-7.543-2.492-15.079-5.066-22.317c-0.073-0.204-0.044-0.444-0.062-0.655
		c2.828-0.82,4.203-0.226,4.858,2.53c1.474,6.197,2.925,12.408,4.083,18.67c1.288,6.961,2.539,13.909,5.241,20.498
		c0.188,0.458,0.434,0.893,0.653,1.338C-574.592-81.734-574.398-81.71-574.204-81.685z"/>
	<path style="fill:#00CC00;" d="M-544.207-110.891c-0.936,0.043-1.495,0.091-2.055,0.092c-8.305,0.005-16.609,0.008-24.914-0.006
		c-0.684-0.001-1.386-0.062-2.048-0.224c-1.643-0.402-2.555-1.46-2.565-3.191c-0.013-2.48-0.021-4.96,0.002-7.439
		c0.017-1.798,1.048-2.961,2.858-3.275c0.507-0.088,1.024-0.162,1.536-0.163c11.015-0.009,22.03-0.007,33.045-0.005
		c0.282,0,0.563,0.024,0.861,0.037c-0.874,2.33-2.798,3.614-5.428,3.616c-8.881,0.007-17.763,0.044-26.644-0.034
		c-1.657-0.015-2.303,0.443-2.104,2.116c0.115,0.967,0.101,1.966,0.003,2.937c-0.151,1.492,0.362,2.002,1.921,1.981
		c6.343-0.083,12.688,0.013,19.031-0.057C-547.96-114.536-546.046-113.267-544.207-110.891z"/>
	<path style="fill:#FFCC00;" d="M-483.398-1.852c-0.43,1.891-0.73,3.533-1.179,5.133c-2.804,9.989-7.35,19.129-13.48,27.491
		c-0.277,0.378-0.456,0.827-0.883,1.618c8.874-4.121,19.685-24.289,20.668-37.918c-2.583,0-5.163-0.003-7.743,0.001
		c-3.375,0.004-6.758,0.166-10.122-0.022c-3.339-0.187-5.678-2.167-7.242-5.026c-0.662-1.21,0.044-1.627,1.229-1.619
		c2.975,0.021,5.95,0.006,8.925,0.006c5.664,0,11.329,0.09,16.99-0.032c3.783-0.082,4.736,1.845,4.18,4.942
		c-1.489,8.291-3.204,16.53-6.793,24.256c-4.09,8.804-10.025,16.074-17.666,22.022c-1.294,1.008-2.263,1.147-3.518,0.004
		c-1.807-1.646-3.775-3.116-5.596-4.748c-1.563-1.401-1.438-1.79-0.169-3.536c2.997-4.124,6.147-8.168,8.774-12.522
		c3.429-5.683,5.909-11.847,7.477-18.323c0.317-1.309,0.819-1.855,2.166-1.747C-486.199-1.777-485.004-1.852-483.398-1.852z
		 M-477.27-7.126c-2.119,16.44-7.923,30.586-20.951,41.07c-2.395-1.782-2.261-1.692-0.693-4.004
		c2.545-3.753,5.09-7.531,7.282-11.494c3.24-5.858,5.557-12.117,7.153-18.678c-1.454,0-2.806,0-4.146,0
		c-3.139,12.273-8.824,23.113-17.228,32.85c2.558,2.082,5.038,4.101,7.467,6.078c7.422-5.26,13.055-11.635,17.24-19.316
		c4.421-8.115,6.613-16.92,8.111-25.938c0.621-3.74,0.248-4.106-3.601-4.107c-7.837-0.002-15.675-0.003-23.512,0.004
		c-0.577,0-1.154,0.063-1.889,0.106c1.615,2.284,3.715,3.422,6.053,3.428c1.602,0.005,3.204,0.001,4.805,0.001
		C-486.673-7.126-482.167-7.126-477.27-7.126z"/>
	<path style="fill:#FFCC00;" d="M-503.628,9.765c1.37-3.636,2.689-6.829,3.748-10.105c0.401-1.241,0.924-1.566,2.128-1.535
		c4.3,0.109,4.519-0.653,3.045,4.15c-3.07,10.003-8.031,18.996-14.897,26.915c-0.065,0.075-0.206,0.085-0.744,0.291
		c-1.851-2.98-3.881-5.967-5.624-9.112c-4.225-7.623-6.388-15.943-7.869-24.459c-1.356-7.8-2.491-15.649-5.175-23.145
		c-0.509-1.422-1.295-2.754-2.031-4.085c-0.677-1.225-0.428-1.804,0.944-1.867c0.685-0.032,1.373-0.006,2.06-0.006
		c3.168,0,3.19-0.007,4.152,2.904c2.259,6.838,3.748,13.849,4.875,20.96c1.496,9.433,3.513,18.735,8.289,27.179
		c0.274,0.484,0.573,0.954,0.864,1.436c2.356-1.827,2.661-3.04,1.579-5.558c-2.966-6.901-4.826-14.105-5.975-21.521
		c-1.194-7.709-2.601-15.38-5.178-22.78c-0.85-2.443-0.707-2.622,1.83-2.621c2.939,0.002,3.697,0.391,4.362,3.22
		c1.486,6.318,2.904,12.657,4.124,19.031c1.19,6.219,2.222,12.462,4.515,18.404C-504.367,8.078-504.09,8.679-503.628,9.765z
		 M-503.387,11.345c-0.192-0.024-0.385-0.048-0.577-0.073c-0.217-0.442-0.462-0.873-0.648-1.328
		c-2.681-6.54-3.924-13.436-5.202-20.345c-1.149-6.215-2.59-12.379-4.053-18.53c-0.651-2.736-2.016-3.325-4.822-2.511
		c0.018,0.21-0.011,0.448,0.061,0.651c2.556,7.183,3.858,14.663,5.029,22.15c1.259,8.054,3.299,15.841,6.736,23.249
		c0.274,0.59,0.631,1.475,0.388,1.911c-0.916,1.641-2.064,3.153-3.228,4.866c-0.403-0.574-0.578-0.795-0.723-1.034
		c-5.448-8.948-7.478-18.969-9.353-29.086c-1.214-6.552-2.786-13.046-4.449-19.502c-0.977-3.794-1.199-3.738-5.111-3.49
		c-0.101,0.006-0.198,0.079-0.407,0.168c0.477,1.182,1.115,2.33,1.406,3.56c1.655,6.984,3.467,13.944,4.762,20.997
		c1.384,7.539,2.962,14.987,6.037,22.036c1.988,4.557,4.471,8.835,7.615,12.804c7.089-8.3,12.046-17.557,15.059-28.034
		c-1.51,0-2.811,0-3.904,0C-500.343,3.73-501.865,7.538-503.387,11.345z"/>
	<path style="fill:#FFCC00;" d="M-500.082-26.684c-0.03,0.621-0.065,1.065-0.07,1.51c-0.01,0.789-0.003,1.578-0.003,2.57
		c0.75,0,1.36,0,1.97,0c6.179,0,12.361,0.094,18.537-0.039c3.205-0.069,5.898,2.39,7.172,4.96c0.391,0.789,0.298,1.616-0.963,1.594
		c-1.142-0.02-2.285-0.006-3.428-0.006c-7.953,0-15.907-0.078-23.859,0.042c-2.827,0.042-5.188-1.928-4.966-4.952
		c0.193-2.618,0.025-5.261,0.044-7.893c0.019-2.575,1.727-4.29,4.275-4.294c11.5-0.017,22.999-0.027,34.499-0.034
		c1.929-0.001,2.172,0.372,1.155,2.076c-1.655,2.772-3.736,4.608-7.381,4.529C-482.016-26.813-490.942-26.684-500.082-26.684z
		 M-473.615-17.642c-1.825-2.358-3.725-3.618-6.45-3.588c-6.296,0.07-12.593-0.026-18.888,0.056
		c-1.547,0.02-2.057-0.485-1.907-1.967c0.098-0.963,0.112-1.955-0.003-2.915c-0.198-1.66,0.443-2.115,2.088-2.1
		c8.814,0.077,17.63,0.041,26.444,0.034c2.61-0.002,4.519-1.276,5.387-3.589c-0.296-0.013-0.575-0.037-0.855-0.037
		c-10.933-0.002-21.866-0.004-32.798,0.005c-0.509,0-1.022,0.074-1.525,0.161c-1.796,0.311-2.82,1.466-2.836,3.25
		c-0.023,2.461-0.016,4.923-0.002,7.384c0.009,1.718,0.915,2.768,2.546,3.167c0.657,0.161,1.354,0.221,2.033,0.222
		c8.242,0.015,16.485,0.011,24.728,0.006C-475.099-17.552-474.543-17.599-473.615-17.642z"/>
	<path style="fill:#FFCC00;" d="M-548.914-7.417c-4.934,0-9.474,0-14.014,0c-1.614,0-3.228,0.004-4.842-0.001
		c-2.356-0.007-4.471-1.153-6.098-3.454c0.741-0.043,1.322-0.106,1.904-0.107c7.896-0.007,15.793-0.006,23.689-0.004
		c3.878,0.001,4.254,0.37,3.628,4.138c-1.51,9.086-3.718,17.957-8.173,26.134c-4.216,7.739-9.892,14.162-17.369,19.462
		c-2.448-1.993-4.947-4.027-7.524-6.124c8.468-9.81,14.195-20.733,17.358-33.098c1.35,0,2.712,0,4.178,0
		c-1.607,6.611-3.942,12.917-7.206,18.819c-2.209,3.993-4.773,7.799-7.337,11.581c-1.58,2.33-1.714,2.239,0.699,4.034
		C-556.897,23.4-551.049,9.147-548.914-7.417z"/>
	<path style="fill:#FFCC00;" d="M-575.228,11.194c1.534-3.836,3.067-7.673,4.649-11.63c1.101,0,2.411,0,3.933,0
		c-3.035,10.556-8.03,19.883-15.172,28.245c-3.167-3.999-5.669-8.309-7.672-12.9c-3.098-7.102-4.688-14.606-6.082-22.202
		c-1.305-7.106-3.131-14.119-4.798-21.155c-0.294-1.239-0.937-2.396-1.417-3.587c0.211-0.089,0.309-0.162,0.41-0.169
		c3.942-0.25,4.165-0.306,5.149,3.516c1.676,6.504,3.26,13.048,4.483,19.649c1.889,10.192,3.934,20.29,9.423,29.305
		c0.147,0.241,0.323,0.464,0.729,1.042c1.174-1.726,2.33-3.249,3.253-4.902c0.245-0.438-0.115-1.331-0.391-1.925
		c-3.462-7.463-5.518-15.309-6.786-23.424c-1.179-7.543-2.492-15.079-5.066-22.317c-0.073-0.204-0.044-0.444-0.062-0.655
		c2.828-0.82,4.203-0.226,4.858,2.53c1.474,6.197,2.925,12.408,4.083,18.67c1.287,6.961,2.539,13.909,5.241,20.498
		c0.188,0.458,0.434,0.893,0.653,1.338C-575.616,11.145-575.422,11.17-575.228,11.194z"/>
	<path style="fill:#FFCC00;" d="M-545.231-18.012c-0.936,0.043-1.495,0.091-2.055,0.092c-8.305,0.005-16.609,0.008-24.914-0.006
		c-0.684-0.001-1.386-0.062-2.048-0.224c-1.643-0.402-2.555-1.46-2.565-3.191c-0.013-2.48-0.021-4.96,0.002-7.439
		c0.017-1.798,1.048-2.961,2.858-3.275c0.507-0.088,1.024-0.162,1.536-0.163c11.015-0.009,22.03-0.007,33.045-0.005
		c0.282,0,0.563,0.024,0.861,0.037c-0.874,2.33-2.798,3.614-5.428,3.616c-8.881,0.007-17.763,0.044-26.644-0.034
		c-1.657-0.015-2.303,0.443-2.104,2.116c0.115,0.967,0.101,1.966,0.003,2.937c-0.151,1.492,0.362,2.002,1.921,1.981
		c6.343-0.083,12.688,0.013,19.031-0.057C-548.984-21.657-547.07-20.387-545.231-18.012z"/>
	<path style="fill:#FFFF00;" d="M-481.35,88.672c-0.43,1.891-0.73,3.533-1.179,5.133c-2.804,9.989-7.35,19.129-13.48,27.491
		c-0.277,0.378-0.456,0.827-0.883,1.618c8.874-4.121,19.685-24.289,20.668-37.918c-2.583,0-5.163-0.003-7.743,0.001
		c-3.375,0.004-6.758,0.166-10.122-0.022c-3.339-0.187-5.678-2.167-7.242-5.026c-0.662-1.21,0.044-1.627,1.229-1.619
		c2.975,0.021,5.95,0.006,8.925,0.006c5.664,0,11.329,0.09,16.99-0.032c3.783-0.082,4.736,1.845,4.18,4.942
		c-1.489,8.291-3.204,16.53-6.793,24.256c-4.09,8.804-10.025,16.074-17.666,22.022c-1.294,1.008-2.263,1.147-3.518,0.004
		c-1.807-1.646-3.775-3.116-5.596-4.748c-1.563-1.401-1.438-1.79-0.169-3.536c2.997-4.124,6.147-8.168,8.774-12.522
		c3.429-5.683,5.909-11.847,7.477-18.323c0.317-1.309,0.819-1.855,2.166-1.747C-484.151,88.747-482.956,88.672-481.35,88.672z
		 M-475.222,83.398c-2.119,16.44-7.923,30.586-20.951,41.07c-2.395-1.782-2.261-1.692-0.693-4.004
		c2.545-3.753,5.09-7.531,7.282-11.494c3.24-5.858,5.557-12.117,7.153-18.678c-1.454,0-2.806,0-4.146,0
		c-3.139,12.273-8.824,23.113-17.228,32.85c2.558,2.082,5.038,4.101,7.467,6.078c7.422-5.26,13.055-11.635,17.24-19.316
		c4.421-8.115,6.613-16.92,8.111-25.938c0.621-3.74,0.248-4.106-3.601-4.107c-7.837-0.002-15.675-0.003-23.512,0.004
		c-0.577,0-1.154,0.063-1.889,0.106c1.615,2.284,3.715,3.422,6.053,3.428c1.602,0.005,3.204,0.001,4.805,0.001
		C-484.625,83.398-480.119,83.398-475.222,83.398z"/>
	<path style="fill:#FFFF00;" d="M-501.58,100.289c1.37-3.636,2.689-6.829,3.748-10.105c0.401-1.241,0.924-1.566,2.128-1.535
		c4.3,0.109,4.519-0.653,3.045,4.15c-3.07,10.003-8.031,18.996-14.897,26.915c-0.065,0.075-0.206,0.085-0.744,0.291
		c-1.851-2.98-3.881-5.967-5.624-9.112c-4.225-7.623-6.388-15.943-7.869-24.459c-1.356-7.8-2.491-15.649-5.174-23.145
		c-0.509-1.422-1.295-2.754-2.031-4.085c-0.677-1.225-0.429-1.804,0.944-1.867c0.685-0.032,1.373-0.006,2.06-0.006
		c3.168,0,3.19-0.007,4.152,2.904c2.259,6.838,3.748,13.849,4.875,20.96c1.495,9.433,3.513,18.735,8.289,27.179
		c0.274,0.484,0.573,0.954,0.864,1.436c2.356-1.827,2.661-3.04,1.579-5.558c-2.966-6.901-4.826-14.105-5.975-21.521
		c-1.194-7.709-2.601-15.38-5.178-22.78c-0.851-2.443-0.707-2.622,1.83-2.621c2.939,0.002,3.697,0.391,4.362,3.22
		c1.486,6.318,2.904,12.657,4.124,19.031c1.19,6.219,2.222,12.462,4.515,18.404C-502.319,98.602-502.042,99.202-501.58,100.289z
		 M-501.339,101.869c-0.192-0.024-0.385-0.048-0.577-0.073c-0.217-0.442-0.462-0.873-0.648-1.328
		c-2.681-6.54-3.924-13.436-5.202-20.345c-1.149-6.215-2.59-12.379-4.053-18.53c-0.65-2.736-2.015-3.325-4.822-2.511
		c0.018,0.21-0.011,0.448,0.061,0.651c2.556,7.183,3.858,14.663,5.029,22.15c1.259,8.054,3.299,15.841,6.736,23.249
		c0.274,0.59,0.631,1.475,0.388,1.911c-0.916,1.641-2.064,3.153-3.228,4.866c-0.403-0.574-0.578-0.795-0.723-1.034
		c-5.448-8.948-7.478-18.969-9.353-29.086c-1.214-6.552-2.786-13.046-4.449-19.502c-0.977-3.794-1.199-3.738-5.111-3.49
		c-0.101,0.006-0.198,0.079-0.407,0.168c0.477,1.182,1.115,2.33,1.406,3.56c1.655,6.984,3.467,13.944,4.762,20.997
		c1.384,7.539,2.962,14.987,6.037,22.036c1.988,4.557,4.471,8.835,7.615,12.804c7.089-8.299,12.046-17.557,15.059-28.034
		c-1.51,0-2.811,0-3.904,0C-498.295,94.254-499.817,98.062-501.339,101.869z"/>
	<path style="fill:#FFFF00;" d="M-498.034,63.84c-0.03,0.621-0.065,1.065-0.07,1.51c-0.01,0.789-0.003,1.578-0.003,2.57
		c0.75,0,1.36,0,1.97,0c6.179,0,12.361,0.094,18.537-0.039c3.205-0.069,5.898,2.39,7.172,4.96c0.391,0.789,0.298,1.616-0.963,1.594
		c-1.142-0.02-2.285-0.006-3.428-0.006c-7.953,0-15.907-0.078-23.859,0.042c-2.827,0.042-5.188-1.928-4.966-4.952
		c0.193-2.618,0.025-5.261,0.044-7.893c0.019-2.575,1.727-4.29,4.275-4.294c11.5-0.017,22.999-0.027,34.499-0.034
		c1.929-0.001,2.172,0.372,1.155,2.076c-1.655,2.772-3.736,4.608-7.381,4.529C-479.968,63.711-488.894,63.84-498.034,63.84z
		 M-471.567,72.882c-1.825-2.358-3.725-3.618-6.45-3.588c-6.296,0.07-12.593-0.026-18.888,0.056
		c-1.547,0.02-2.057-0.485-1.906-1.967c0.098-0.963,0.112-1.955-0.003-2.915c-0.198-1.66,0.443-2.115,2.088-2.1
		c8.814,0.077,17.63,0.041,26.444,0.034c2.61-0.002,4.519-1.276,5.387-3.589c-0.296-0.013-0.575-0.037-0.855-0.037
		c-10.933-0.002-21.866-0.004-32.798,0.005c-0.509,0-1.022,0.074-1.525,0.161c-1.796,0.311-2.82,1.466-2.836,3.25
		c-0.023,2.461-0.016,4.923-0.002,7.384c0.009,1.718,0.915,2.768,2.546,3.167c0.657,0.161,1.354,0.221,2.033,0.222
		c8.242,0.015,16.485,0.011,24.728,0.006C-473.051,72.972-472.495,72.925-471.567,72.882z"/>
	<path style="fill:#FFFF00;" d="M-546.866,83.107c-4.934,0-9.474,0-14.014,0c-1.614,0-3.228,0.004-4.842-0.001
		c-2.356-0.007-4.471-1.153-6.098-3.454c0.741-0.043,1.322-0.106,1.904-0.107c7.896-0.007,15.793-0.006,23.689-0.004
		c3.878,0.001,4.254,0.37,3.628,4.138c-1.51,9.086-3.718,17.957-8.173,26.134c-4.216,7.739-9.892,14.162-17.369,19.462
		c-2.448-1.993-4.947-4.027-7.524-6.124c8.468-9.81,14.195-20.733,17.358-33.098c1.35,0,2.712,0,4.178,0
		c-1.607,6.611-3.942,12.917-7.206,18.819c-2.209,3.993-4.773,7.799-7.337,11.581c-1.58,2.33-1.714,2.239,0.699,4.034
		C-554.849,113.923-549.001,99.671-546.866,83.107z"/>
	<path style="fill:#FFFF00;" d="M-573.18,101.718c1.534-3.836,3.067-7.673,4.649-11.63c1.101,0,2.411,0,3.933,0
		c-3.035,10.556-8.03,19.883-15.172,28.245c-3.167-3.999-5.669-8.309-7.672-12.9c-3.098-7.102-4.688-14.606-6.082-22.202
		c-1.305-7.106-3.13-14.119-4.798-21.155c-0.294-1.239-0.937-2.396-1.417-3.587c0.211-0.089,0.308-0.162,0.41-0.169
		c3.942-0.25,4.165-0.306,5.149,3.516c1.676,6.504,3.26,13.048,4.483,19.649c1.889,10.192,3.934,20.29,9.423,29.305
		c0.147,0.241,0.323,0.464,0.729,1.042c1.174-1.726,2.33-3.249,3.253-4.902c0.245-0.438-0.115-1.331-0.391-1.925
		c-3.462-7.463-5.518-15.309-6.786-23.424c-1.179-7.543-2.492-15.079-5.066-22.317c-0.073-0.204-0.044-0.444-0.062-0.655
		c2.828-0.82,4.203-0.226,4.858,2.53c1.474,6.197,2.925,12.408,4.083,18.67c1.288,6.961,2.539,13.909,5.241,20.498
		c0.188,0.458,0.434,0.893,0.653,1.338C-573.568,101.669-573.374,101.693-573.18,101.718z"/>
	<path style="fill:#FFFF00;" d="M-543.183,72.512c-0.936,0.043-1.495,0.091-2.055,0.092c-8.305,0.005-16.609,0.008-24.914-0.006
		c-0.684-0.001-1.386-0.062-2.048-0.224c-1.643-0.402-2.555-1.46-2.565-3.191c-0.013-2.48-0.021-4.96,0.002-7.439
		c0.017-1.798,1.048-2.961,2.858-3.275c0.507-0.088,1.024-0.162,1.536-0.163c11.015-0.009,22.03-0.007,33.045-0.005
		c0.282,0,0.563,0.024,0.861,0.037c-0.874,2.33-2.798,3.614-5.428,3.616c-8.881,0.007-17.763,0.044-26.644-0.034
		c-1.657-0.015-2.303,0.443-2.104,2.116c0.115,0.967,0.101,1.966,0.003,2.937c-0.151,1.492,0.362,2.002,1.921,1.981
		c6.343-0.083,12.688,0.013,19.031-0.057C-546.936,68.867-545.022,70.137-543.183,72.512z"/>
	<path d="M57.14,25.457c-1.51,9.086-3.718,17.957-8.173,26.133c-4.216,7.739-9.892,14.162-17.369,19.462
		c-2.448-1.993-4.947-4.027-7.524-6.124c8.468-9.81,14.195-20.733,17.358-33.098h4.178c-1.607,6.611-3.942,12.917-7.206,18.819
		c-2.209,3.993-4.773,7.799-7.337,11.581c-1.58,2.33-1.714,2.239,0.699,4.034C44.89,55.701,50.738,41.449,52.873,24.885H38.859
		c-1.614,0-3.228,0.004-4.842-0.001c-2.356-0.007-4.471-1.153-6.098-3.454c0.741-0.043,1.322-0.106,1.904-0.107
		c7.896-0.007,15.793-0.006,23.689-0.004C57.39,21.32,57.766,21.689,57.14,25.457z M31.208,31.866
		c-1.582,3.957-3.115,7.794-4.649,11.63c-0.194-0.024-0.388-0.049-0.582-0.073c-0.219-0.446-0.465-0.88-0.653-1.338
		c-2.702-6.589-3.953-13.537-5.241-20.498C18.926,15.325,17.474,9.113,16,2.916c-0.655-2.756-2.031-3.35-4.858-2.53
		c0.018,0.211-0.011,0.451,0.062,0.656c2.575,7.238,3.887,14.773,5.066,22.317c1.269,8.115,3.324,15.961,6.786,23.424
		c0.276,0.594,0.635,1.487,0.391,1.925c-0.923,1.653-2.079,3.177-3.253,4.902c-0.406-0.578-0.582-0.801-0.729-1.042
		c-5.489-9.015-7.534-19.112-9.423-29.305C8.819,16.662,7.235,10.118,5.56,3.614C4.575-0.209,4.352-0.152,0.41,0.098
		C0.309,0.104,0.211,0.177,0,0.267c0.48,1.191,1.123,2.348,1.417,3.587C3.084,10.89,4.91,17.902,6.215,25.009
		c1.394,7.596,2.984,15.1,6.082,22.202c2.003,4.591,4.505,8.901,7.672,12.9c7.143-8.362,12.137-17.689,15.172-28.245H31.208z
		 M62.416,0.078c-11.015-0.002-22.03-0.004-33.045,0.005c-0.512,0-1.03,0.075-1.536,0.162c-1.809,0.314-2.841,1.477-2.858,3.275
		C24.954,6,24.961,8.48,24.975,10.96c0.009,1.731,0.922,2.789,2.565,3.191c0.662,0.162,1.364,0.223,2.048,0.224
		c8.305,0.015,16.609,0.011,24.914,0.006c0.559,0,1.119-0.048,2.055-0.092c-1.839-2.375-3.753-3.645-6.499-3.615
		c-6.343,0.07-12.688-0.026-19.031,0.057c-1.559,0.021-2.072-0.489-1.921-1.981c0.098-0.97,0.113-1.97-0.003-2.937
		c-0.2-1.673,0.446-2.131,2.104-2.116c8.881,0.078,17.762,0.041,26.644,0.034c2.629-0.002,4.553-1.286,5.428-3.616
		C62.98,0.102,62.698,0.078,62.416,0.078z"/>
</g>
</svg>
